<?xml version="1.0" encoding="UTF-8"?><svg id="b" xmlns="http://www.w3.org/2000/svg" viewBox="0 0 912.987 323.937"><defs><style>.d{letter-spacing:.03em;}.e{letter-spacing:-.056em;}.f{fill:#ea644a;}.g,.h{fill:#ea580c;}.i{letter-spacing:.006em;}.j{letter-spacing:.012em;}.k{letter-spacing:-.023em;}.l{letter-spacing:.03em;}.m{fill:#1e3a8a;font-family:Rubik-SemiBold, Rubik;font-size:183.962px;font-variation-settings:'wght' 600;font-weight:600;}.n{letter-spacing:.023em;}.o{letter-spacing:.023em;}.p{letter-spacing:.001em;}.h{font-family:Rubik-Medium, Rubik;font-size:44.867px;font-variation-settings:'wght' 500;font-weight:500;}.q{letter-spacing:.03em;}</style></defs><g id="c"><text class="m" transform="translate(288.813 192.914)"><tspan x="0" y="0">Big</tspan><tspan class="k" x="293.231" y="0">F</tspan><tspan x="401.033" y="0">an</tspan></text><text class="h" transform="translate(367.168 280.32)"><tspan class="d" x="0" y="0">Mo</tspan><tspan class="n" x="65.639" y="0">r</tspan><tspan class="l" x="85.381" y="0">e</tspan><tspan class="i" x="112.615" y="0"> </tspan><tspan class="j" x="123.159" y="0">T</tspan><tspan class="q" x="150.841" y="0">han</tspan><tspan class="p" x="236.716" y="0"> </tspan><tspan class="e" x="247.036" y="0">Y</tspan><tspan class="q" x="274.314" y="0">ou</tspan><tspan class="i" x="331.428" y="0"> </tspan><tspan class="j" x="341.972" y="0">T</tspan><tspan class="q" x="369.655" y="0">hin</tspan><tspan class="o" x="441.755" y="0">k</tspan></text><path class="g" d="m110.383,321.505c.808.573,1.61,1.156,2.402,1.754-.827.04-1.665.07-2.497.1-11,.419-22.265.553-33.644.578.075-3.404.179-6.809.364-10.208.274-5.014.713-10.019,1.087-15.023.035-.439.155-.867.299-1.635.399.673.578,1.042.817,1.366.389.533.718,1.191,1.246,1.52,3.15,1.974,6.235,4.032,8.902,6.644,1.919,1.879,4.002,3.519,6.35,4.83.593.329,1.156.713,1.715,1.102,3.275,2.248,6.559,4.491,9.819,6.759,1.047.733,2.098,1.465,3.14,2.213Z"/><path class="f" d="m159.788,156.144c.1,0,.204-.005.304-.01-.005.314-.015.628-.02.942-.105-.015-.204-.03-.304-.05.005-.294.01-.588.02-.882Z"/><path class="g" d="m251.211,211.017c0,44.391-14.724,71.376-38.539,87.759.085-3.045.319-6.086.688-9.116.379-3.115.563-6.26,1.102-9.351,1.072-6.126,2.308-12.222,3.524-18.317.13-.648.488-1.311.912-1.824,1.291-1.55,1.879-3.195,1.416-5.254-.284-1.236-.229-2.562-.254-3.848-.035-1.61.15-3.24-.025-4.835-.249-2.338-.174-4.625.189-6.938.384-2.457.658-4.929.892-7.407.12-1.286-.025-2.597.08-3.888.16-1.954.115-3.883-.284-5.812-.125-.623-.15-1.291-.07-1.924.264-2.143.573-4.287.922-6.42.135-.847.379-1.685.633-2.502.479-1.545,1.191-3.04,1.475-4.616.488-2.712.743-5.453,1.759-8.055.508-1.306.414-2.696-.344-3.913-.409-.653-.473-1.286-.414-2.004.359-4.302.444-8.623,1.306-12.885.334-1.66.703-3.255,1.52-4.75.409-.753.693-1.585.947-2.407.269-.872.075-1.65-.483-2.432-1.49-2.068-3.773-2.991-5.842-4.227-.748-.449-1.336-.09-1.789.563-.459.658-.997.967-1.889.942-1.281-.035-1.899.952-1.415,2.253.459,1.251.409,2.447.05,3.649-.643,2.163-.419,4.137.852,6.041.359.543.578,1.321.538,1.969-.214,3.3-.842,6.535-1.824,9.695-.135.434-.399.882-.733,1.181-.912.822-1.52,1.799-1.939,2.941-.892,2.437-1.849,4.85-2.756,7.282-.249.658-.488,1.326-.628,2.009-.399,1.959-.708,3.938-1.141,5.887-.184.827-.494,1.655-.902,2.393-.638,1.161-1.107,2.323-1.097,3.678.005.827-.179,1.665-.279,2.497-.125.035-.249.065-.369.1-.309-.404-.623-.802-.922-1.211-1.341-1.794-2.796-3.454-4.919-4.371-.793-.344-1.585-.698-2.353-1.097-2.771-1.431-5.622-1.396-8.513-.488-1.834.573-3.21,1.685-4.122,3.429-1.366,2.617-3.334,4.94-3.883,7.96-.01.05-.05.095-.08.14-.877,1.261-1.062,2.691-1.057,4.177.015,3.085.07,6.171-.02,9.251-.055,1.839.513,3.185,2.263,3.873.678.269,1.042.698,1.156,1.411.09.523.264,1.037.404,1.565-.867.887-1.69,1.725-2.537,2.587-.513-.199-.952-.399-1.41-.538-1.62-.498-3.27-.917-4.945-.389-2.721.862-5.473,1.087-8.294.658-.309-.045-.658.01-.952.12-1.067.389-1.884.085-2.587-.768-.543-.648-1.276-.927-2.118-1.067-.618-.105-1.241-.209-1.859-.319.299-.608.613-1.211.942-1.804,1.032-1.859,1.784-3.768,1.994-5.861.164-1.645.618-3.155,1.49-4.556.703-1.136,1.161-2.373.932-3.713-.284-1.64.005-3.21.334-4.795.259-1.221.513-2.447.668-3.683.264-2.078.778-4.067,1.55-6.021.568-1.435,1.067-2.981,1.156-4.501.115-1.904-.145-3.843-.389-5.752-.324-2.472-.777-4.935-1.196-7.397-1.092-6.37-2.343-12.695-4.511-18.811-.778-2.188-1.082-4.576-.424-6.779.852-2.856.937-5.592.16-8.428-.468-1.71.05-3.404.284-5.104.224-1.625-.563-2.582-2.193-2.731-.199-.02-.409.005-.578.005-.977-1.431-1.555-1.635-2.976-.892-.394.209-.608.14-.967.02-1.236-.419-2.133-.005-2.622,1.211-.264.653-.409,1.356-.713,2.417-.469-1.505-.837-2.682-1.191-3.863-.184-.593-.249-1.246-.533-1.779-.194-.354-.668-.713-1.047-.753-.269-.03-.723.409-.872.743-.773,1.745-1.201,3.534-.643,5.458.399,1.396.688,2.816,1.047,4.292-.274-.01-.434.025-.558-.025-.449-.175-.992-.399-1.261.095-.179.329-.1.877.02,1.281.249.842.688,1.64.892,2.492.608,2.532,1.71,4.795,3.404,6.769.239.279.419.598.633.897.498.688.772,1.42.847,2.298.239,2.642.414,5.308.897,7.91.553,2.956.683,5.877.304,8.852-.344,2.751-.309,5.508.279,8.244.384,1.774.718,3.569.987,5.368.194,1.281-.14,2.462-.907,3.539-1.062,1.48-2.148,2.951-3.09,4.511-.608,1.012-1.231,2.133-1.391,3.265-.439,3.08-1.735,5.757-3.3,8.364-.872,1.451-1.874,2.737-3.359,3.629-.568.339-1.136.778-1.535,1.301-1.126,1.485-2.756,2.158-4.307,2.991q-1.002-1.769-.643-3.504c.075-.354.169-.713.174-1.077.01-.633.259-1.057.847-1.351,1.141-.568,1.605-1.58,1.675-2.806.05-.882.125-1.769.12-2.652,0-.459-.015-1.027-.269-1.346-.633-.788-.459-1.555-.184-2.348.653-1.864.444-3.693-.15-5.518-.209-.643-.488-1.286-.558-1.944-.144-1.411-.887-2.383-1.949-3.24-.493-.404-1.017-1.002-1.136-1.59-.394-1.939-1.57-3.105-3.28-3.883-.474-.219-.912-.638-1.396-.683-1.366-.125-2.338-2.078-4.082-.733-.553.424-1.65.105-2.487.209-.369.045-.773.239-1.052.489-.528.478-.902,1.171-1.794.518-.189-.135-.728.055-1.022.229-1.565.932-3.205,1.794-3.768,3.748-.065.224-.254.489-.459.588-1.082.538-1.58,1.431-1.779,2.582-.08.449-.344.867-.563,1.281-.424.798-.678,1.625-.793,2.472-.603-.294-1.281-.389-2.118-.04-1.435-.633-2.113.125-2.387,1.371-1.456.145-1.441.15-1.754,1.446-.065.274-.234.618-.459.753-.772.459-.473,1.236-.688,1.854-.224.643-.862,1.136-1.266,1.735-.095.139,0,.419.03.633.13,1.072.314,2.138.394,3.215.155,2.093,1.246,3.514,3.045,4.471.478.249.992.439,1.441.738.389.259.733.603,1.052.947.498.543.922,1.161,1.446,1.675,1.236,1.206,2.572,2.313,3.753,3.559l.194.209c-1.037,1.116-2.348,1.879-3.948,2.343-5.777,1.665-11.429,3.708-15.815,8.09-1.371,1.366-3.045,1.929-4.785,2.467-.15.045-.309.05-.459.1-2.323.753-4.69,1.386-6.953,2.293-2.811,1.126-5.403,2.711-7.806,4.556-.573.439-1.146.877-1.715,1.316-.743-.244-1.495-.454-2.258-.648-1.111-.284-2.243-.573-3.26-1.077-1.201-.593-1.874-1.69-1.754-3.08.11-1.221.668-2.183,1.959-2.557,1.057-.309,1.406-1.206,1.6-2.148.558-2.706,1.052-5.433,1.615-8.139.493-2.358.523-4.62-.553-6.888-.354-.733-.359-1.989.055-2.632.498-.778.409-1.391.234-2.108.319-.234.568-.424.817-.613,3.359-2.502,6.649-5.094,9.371-8.304.807-.942,1.5-2.024,2.049-3.135.852-1.745-.115-3.325-2.044-3.434-1.042-.06-2.103-.045-3.13.09-4.077.528-7.985,1.675-11.643,3.549-.922.473-1.725.508-2.687.329-4.715-.897-9.356-.623-13.931.892-1.71.568-3.33,1.276-4.65,2.502-1.485,1.386-2.896,2.856-4.331,4.302-2.402,2.432-2.816,5.238-1.61,8.379.279.728.434,1.51.563,2.278.254,1.52.748,2.931,1.575,4.232,1.485,2.328,1.969,4.999,2.716,7.651-1.037.199-1.944.439-2.866.528-1.45.145-2.861-.792-3.325-2.073-2.089-5.742-3.987-11.559-6.938-16.957-1.027-1.884-.942-1.939-2.941-1.087-.075.035-.194-.025-.17-.025-.992-1.316-1.939-2.557-2.856-3.818-.399-.548-.738-1.141-1.097-1.72-.603-.967-.668-1.929-.065-2.951.992-1.66,1.914-3.364,2.891-5.029,2.577-4.371,5.209-8.708,7.736-13.104,1.829-3.175,3.519-6.42,6.061-9.126.922-.982,1.779-2.084,2.432-3.26.947-1.72,2.318-2.283,4.157-2.058.259.03.523.03.783.04,1.56.045,3-.264,4.252-1.286.349-.284.813-.459,1.251-.588.952-.284,1.939-.444,2.876-.768.498-.169.917-.578,1.376-.877-.279-.404-.538-.832-.847-1.216-.155-.189-.399-.309-.628-.478.508-.927,1.012-1.769,1.45-2.652.857-1.71.479-2.298-1.405-2.268-.15.005-.299-.03-.528-.055-.065-1.331-.658-2.183-2.063-2.118-.254-.628-.364-1.311-.753-1.745-.374-.409-1.042-.558-1.575-.817-.334-.628-.713-1.346-1.296-1.605-.593-.264-1.391-.08-2.074-.095-.678-1.834-1.46-2.283-3.339-1.994-1.102.17-1.949.718-2.567,1.63-1.49,2.208-2.995,4.416-4.456,6.639-.374.568-.743,1.181-.907,1.824-.573,2.223-1.74,4.117-3.09,5.931-.623.837-1.161,1.74-1.774,2.587-2.831,3.953-5.558,7.99-8.548,11.818-3.698,4.74-7.616,9.311-11.454,13.941-1.361,1.645-2.378,3.469-2.691,5.582-.309,2.064-.578,4.152-.623,6.23-.06,3.105.339,6.131,1.889,8.947,1.007,1.824,1.754,3.788,2.622,5.692-.219.319-.359.603-.568.827-.817.862-.837,1.864-.553,2.926.125.454.279.897.444,1.341,1.226,3.354,3.016,6.43,4.855,9.465,1.71,2.821,3.434,5.632,4.526,8.758.429,1.226.822,2.512.912,3.793.184,2.552.259,5.124.175,7.681-.209,6.385-.239,12.76.339,19.13.135,1.5.105,3.031-.005,4.531-.254,3.389-.703,6.769-.897,10.158-.02.354-.035.708-.05,1.057C7.486,285.966,0,241.541,0,147.855,0,13.398,26.317,0,108.619,0c56.941,0,133.022,4.785,133.022,75.124,0,46.893-30.145,60.769-71.296,60.769-10.048,0-9.57,7.656,4.785,7.656,22.011,0,76.081,1.914,76.081,67.468Z"/></g></svg>