<?xml version="1.0" encoding="utf-8"?>
<!-- Generator: Adobe Illustrator 27.5.0, SVG Export Plug-In . SVG Version: 6.00 Build 0)  -->
<svg version="1.1" xmlns="http://www.w3.org/2000/svg" xmlns:xlink="http://www.w3.org/1999/xlink" x="0px" y="0px"
	 viewBox="0 0 500 500" style="enable-background:new 0 0 500 500;" xml:space="preserve">
<g id="Floor">
	<g id="Floor_1_">
		<ellipse id="Floor_2_" style="fill:#EBEBEB;" cx="249" cy="341.602" rx="217.1" ry="125.343"/>
		<path id="Road" style="fill:#FAFAFA;" d="M466.097,341.475c-0.049-28.739-17.122-57.465-51.196-80.721
			c-0.61-0.413-1.219-0.828-1.831-1.235L106.83,436.328c0,0,0,0,0.001,0c0.624,0.313,1.259,0.624,1.89,0.936
			c40.323,19.754,90.182,29.65,140.061,29.678L466.097,341.475z"/>
	</g>
</g>
<g id="Shadows">
	<ellipse id="Shadow_3_" style="fill:#E0E0E0;" cx="199.807" cy="250.702" rx="38.238" ry="22.077"/>
	<ellipse id="Shadow_2_" style="opacity:0.05;" cx="319.416" cy="370.628" rx="56.15" ry="32.418"/>
	<ellipse id="Shadow_1_" style="fill:#E0E0E0;" cx="96.675" cy="356.538" rx="44.183" ry="25.509"/>
</g>
<g id="Trees">
	<g id="Pine_3_">
		<g id="XMLID_487_">
			<g id="XMLID_525_">
				<path id="XMLID_536_" style="fill:#B16668;" d="M190.961,143.5v106.968c0,1.284,0.849,2.567,2.545,3.547
					c3.392,1.959,8.893,1.959,12.286,0c1.696-0.979,2.544-2.263,2.544-3.547V143.5H190.961z"/>
			</g>
			<path id="XMLID_524_" style="fill:#27DEBF;" d="M257.212,198.863l-53.815-129.96h-7.495l-53.816,129.97
				c-1.66,4.008,0.761,8.533,5.016,9.377l0.876,0.174c3.539,0.701,5.934,4.018,5.487,7.598l0,0
				c-0.619,4.952,4.077,8.893,8.847,7.425l2.657-0.818c3.308-1.018,6.857,0.58,8.286,3.732l2.676,5.9
				c1.691,3.73,6.248,5.164,9.77,3.075l10.441-6.19c2.162-1.282,4.852-1.282,7.014,0l10.441,6.191
				c3.523,2.089,8.079,0.655,9.77-3.075l2.677-5.902c1.429-3.151,4.977-4.75,8.284-3.733l2.66,0.818
				c4.77,1.467,9.465-2.476,8.845-7.427l-0.001-0.004c-0.448-3.579,1.945-6.896,5.482-7.599l0.885-0.176
				C256.453,207.393,258.871,202.869,257.212,198.863z"/>
			<path id="XMLID_521_" style="opacity:0.3;" d="M257.212,198.863l-53.815-129.96h-7.495l-53.816,129.97
				c-1.66,4.008,0.761,8.533,5.016,9.377l0.876,0.174c3.539,0.701,5.934,4.018,5.487,7.598l0,0
				c-0.619,4.952,4.077,8.893,8.847,7.425l2.657-0.818c3.308-1.018,6.857,0.58,8.286,3.732l2.676,5.9
				c1.691,3.73,6.248,5.164,9.77,3.075l10.441-6.19c2.162-1.282,4.852-1.282,7.014,0l10.441,6.191
				c3.523,2.089,8.079,0.655,9.77-3.075l2.677-5.902c1.429-3.151,4.977-4.75,8.284-3.733l2.66,0.818
				c4.77,1.467,9.465-2.476,8.845-7.427l-0.001-0.004c-0.448-3.579,1.945-6.896,5.482-7.599l0.885-0.176
				C256.453,207.393,258.871,202.869,257.212,198.863z"/>
			<path id="XMLID_520_" style="opacity:0.1;" d="M189.889,83.422l6.012-13.659h7.495l9.941,23.146l32.479,78.435
				c-0.359,1.616-1.477,2.903-3.385,3.216l-0.001,0c-2.741,0.45-4.644,2.974-4.323,5.733l0.117,0.997
				c0.452,3.876-3.367,6.85-7.014,5.461l-2.663-1.014c-2.579-0.982-5.475,0.222-6.599,2.742l-3.302,7.409
				c-1.268,2.846-4.738,3.945-7.413,2.348l-8.921-5.944c-1.641-0.98-3.688-0.98-5.329,0l-9.958,5.944
				c-2.676,1.597-6.145,0.498-7.413-2.348l-3.302-7.409c-1.123-2.521-4.02-3.724-6.599-2.742l-2.662,1.014
				c-3.647,1.389-7.467-1.586-7.014-5.461l0.116-0.995c0.322-2.759-1.582-5.284-4.323-5.733c-1.359-0.223-2.312-0.942-2.882-1.919
				L189.889,83.422z"/>
			<path id="XMLID_519_" style="fill:#27DEBF;" d="M245.214,161.075l-41.818-97.367h-7.495l-42.857,97.369
				c-1.543,3.131-0.662,6.864,2.784,7.429c2.741,0.449,4.645,2.974,4.323,5.733l-0.116,0.995c-0.452,3.876,3.368,6.85,7.014,5.462
				l2.662-1.014c2.579-0.982,5.476,0.222,6.599,2.742l3.302,7.409c1.268,2.846,4.738,3.945,7.413,2.348l9.958-5.944
				c1.641-0.979,3.688-0.979,5.329,0l8.921,5.944c2.675,1.597,6.145,0.498,7.413-2.348l3.302-7.409
				c1.123-2.521,4.02-3.724,6.599-2.742l2.663,1.014c3.647,1.389,7.466-1.585,7.014-5.461l-0.117-0.997
				c-0.322-2.759,1.582-5.284,4.323-5.733l0.001,0C245.876,167.939,246.758,164.207,245.214,161.075z"/>
			<path id="XMLID_504_" style="opacity:0.2;" d="M245.214,161.075l-41.818-97.367h-7.495l-42.857,97.369
				c-1.543,3.131-0.662,6.864,2.784,7.429c2.741,0.449,4.645,2.974,4.323,5.733l-0.116,0.995c-0.452,3.876,3.368,6.85,7.014,5.462
				l2.662-1.014c2.579-0.982,5.476,0.222,6.599,2.742l3.302,7.409c1.268,2.846,4.738,3.945,7.413,2.348l9.958-5.944
				c1.641-0.979,3.688-0.979,5.329,0l8.921,5.944c2.675,1.597,6.145,0.498,7.413-2.348l3.302-7.409
				c1.123-2.521,4.02-3.724,6.599-2.742l2.663,1.014c3.647,1.389,7.466-1.585,7.014-5.461l-0.117-0.997
				c-0.322-2.759,1.582-5.284,4.323-5.733l0.001,0C245.876,167.939,246.758,164.207,245.214,161.075z"/>
			<path id="XMLID_502_" style="opacity:0.1;" d="M195.901,63.708h7.495l30.474,70.954c-0.234,0.201-0.488,0.385-0.768,0.542
				l-0.233,0.13c-1.603,0.899-2.533,2.652-2.377,4.483l0,0.002c0.274,3.227-2.73,5.752-5.862,4.927l-1.818-0.479
				c-2.096-0.552-4.298,0.406-5.322,2.317l-2.494,4.651c-1.213,2.263-4.022,3.128-6.298,1.939l-6.882-3.594
				c-1.359-0.71-2.979-0.71-4.338,0l-6.881,3.594c-2.276,1.189-5.085,0.324-6.298-1.939l-2.493-4.651
				c-1.024-1.911-3.226-2.869-5.323-2.317l-1.816,0.479c-3.132,0.825-6.136-1.7-5.862-4.927c0.156-1.832-0.774-3.585-2.377-4.483
				l-0.233-0.13c-0.511-0.286-0.932-0.663-1.286-1.086L195.901,63.708z"/>
			<path id="XMLID_498_" style="fill:#27DEBF;" d="M234.797,122.781l-31.432-66.072l-0.245-0.397
				c-0.698-1.2-1.983-2.015-3.471-2.015c-1.488,0-2.773,0.815-3.471,2.015l-0.252,0.408L164.5,122.782
				c-1.4,2.268-0.63,5.245,1.695,6.549l0.233,0.13c1.603,0.899,2.533,2.652,2.377,4.483c-0.275,3.227,2.73,5.753,5.862,4.927
				l1.816-0.479c2.097-0.552,4.298,0.406,5.323,2.317l2.493,4.651c1.213,2.263,4.022,3.128,6.298,1.939l6.881-3.594
				c1.359-0.71,2.979-0.71,4.338,0l6.882,3.594c2.276,1.189,5.085,0.324,6.298-1.939l2.494-4.651
				c1.024-1.911,3.226-2.869,5.322-2.317l1.818,0.479c3.132,0.825,6.136-1.7,5.862-4.927l0-0.002
				c-0.156-1.831,0.774-3.584,2.377-4.483l0.233-0.131C235.427,128.025,236.198,125.048,234.797,122.781z"/>
			<path id="XMLID_489_" style="opacity:0.1;" d="M234.797,122.781l-31.432-66.072l-0.245-0.397c-0.698-1.2-1.983-2.015-3.471-2.015
				c-1.488,0-2.773,0.815-3.471,2.015l-0.252,0.408L164.5,122.782c-1.4,2.268-0.63,5.245,1.695,6.549l0.233,0.13
				c1.603,0.899,2.533,2.652,2.377,4.483c-0.275,3.227,2.73,5.753,5.862,4.927l1.816-0.479c2.097-0.552,4.298,0.406,5.323,2.317
				l2.493,4.651c1.213,2.263,4.022,3.128,6.298,1.939l6.881-3.594c1.359-0.71,2.979-0.71,4.338,0l6.882,3.594
				c2.276,1.189,5.085,0.324,6.298-1.939l2.494-4.651c1.024-1.911,3.226-2.869,5.322-2.317l1.818,0.479
				c3.132,0.825,6.136-1.7,5.862-4.927l0-0.002c-0.156-1.831,0.774-3.584,2.377-4.483l0.233-0.131
				C235.427,128.025,236.198,125.048,234.797,122.781z"/>
		</g>
		<g id="XMLID_472_">
			<g id="XMLID_482_">
				<path id="XMLID_485_" style="fill:#37474F;" d="M195.457,253.823c-0.075-2.874-2.437-5.185-5.334-5.185
					c-2.898,0-5.255,2.311-5.33,5.185c-0.005,0.051-0.005,0.098-0.005,0.149c0,0.051,0,0.098,0.005,0.149
					c0.061,0.741,0.578,1.467,1.556,2.031c2.083,1.202,5.465,1.202,7.547,0c0.978-0.564,1.5-1.291,1.561-2.031
					c0.005-0.051,0.005-0.098,0.005-0.149C195.462,253.921,195.462,253.874,195.457,253.823z"/>
				<path id="XMLID_483_" style="fill:#263238;" d="M193.896,256.153c0.978-0.564,1.5-1.291,1.561-2.031
					c0.005-0.051,0.005-0.098,0.005-0.149c0-0.051,0-0.098-0.005-0.149c-0.051-1.954-1.16-3.645-2.774-4.529
					c0.026,0.051,2.653,3.35,0.712,5.55c-1.34,1.519-5.945,1.796-7.967,0.597c0.24,0.255,0.546,0.496,0.92,0.712
					C188.432,257.355,191.814,257.355,193.896,256.153z"/>
			</g>
			<g id="XMLID_478_">
				<path id="XMLID_480_" style="fill:#455A64;" d="M186.833,256.508c-0.053-2.03-1.721-3.662-3.767-3.662
					c-2.046,0-3.711,1.632-3.764,3.662c-0.003,0.036-0.003,0.069-0.003,0.105c0,0.036,0,0.069,0.003,0.105
					c0.043,0.523,0.408,1.036,1.099,1.434c1.471,0.849,3.859,0.849,5.33,0c0.691-0.398,1.059-0.911,1.102-1.434
					c0.003-0.036,0.003-0.069,0.003-0.105C186.837,256.577,186.837,256.544,186.833,256.508z"/>
				<path id="XMLID_479_" style="fill:#37474F;" d="M185.731,258.153c0.691-0.398,1.059-0.911,1.102-1.434
					c0.003-0.036,0.003-0.069,0.003-0.105c0-0.036,0-0.069-0.003-0.105c-0.011-0.44-0.103-0.86-0.254-1.25
					c0.093,1.615-0.673,2.595-3.052,2.899c-2.454,0.313-3.936-0.705-4.14-1.073c0.149,0.392,0.485,0.765,1.014,1.069
					C181.872,259.002,184.26,259.002,185.731,258.153z"/>
			</g>
			<g id="XMLID_473_">
				<path id="XMLID_476_" style="fill:#455A64;" d="M214.461,252.738c-0.052-2.015-1.708-3.634-3.739-3.634
					c-2.031,0-3.683,1.62-3.735,3.634c-0.003,0.036-0.003,0.068-0.003,0.104s0,0.069,0.003,0.105
					c0.042,0.519,0.405,1.029,1.09,1.424c1.46,0.842,3.83,0.842,5.29,0c0.686-0.395,1.051-0.904,1.094-1.424
					c0.003-0.036,0.003-0.069,0.003-0.105S214.464,252.774,214.461,252.738z"/>
				<path id="XMLID_475_" style="fill:#37474F;" d="M213.367,254.371c0.686-0.395,1.051-0.904,1.094-1.424
					c0.003-0.036,0.003-0.069,0.003-0.105s0-0.068-0.003-0.104c-0.011-0.437-0.102-0.853-0.252-1.241
					c0.092,1.603-0.667,2.576-3.029,2.877c-2.436,0.311-3.906-0.7-4.109-1.064c0.148,0.389,0.481,0.759,1.006,1.061
					C209.537,255.213,211.908,255.213,213.367,254.371z"/>
			</g>
		</g>
	</g>
	<g id="Pine_1_">
		<g id="XMLID_406_">
			<g id="XMLID_431_">
				<path id="XMLID_440_" style="fill:#B16668;" d="M105.502,241.568v115.596c0,1.387-0.917,2.774-2.75,3.833
					c-3.666,2.117-9.611,2.117-13.277,0c-1.833-1.059-2.749-2.445-2.749-3.833V241.568H105.502z"/>
			</g>
			<path id="XMLID_430_" style="fill:#27DEBF;" d="M33.907,301.396l58.156-140.442h8.1l58.157,140.453
				c1.794,4.332-0.822,9.221-5.421,10.133l-0.947,0.188c-3.824,0.758-6.412,4.342-5.929,8.211l0,0
				c0.669,5.351-4.406,9.611-9.56,8.024l-2.871-0.884c-3.575-1.1-7.41,0.627-8.954,4.033l-2.891,6.376
				c-1.828,4.031-6.752,5.58-10.558,3.323l-11.283-6.69c-2.337-1.386-5.243-1.386-7.58,0l-11.283,6.69
				c-3.807,2.257-8.73,0.708-10.558-3.323l-2.893-6.378c-1.544-3.405-5.379-5.133-8.952-4.034l-2.875,0.884
				c-5.155,1.585-10.229-2.676-9.559-8.027l0-0.004c0.484-3.868-2.102-7.452-5.924-8.212l-0.956-0.19
				C34.728,310.614,32.114,305.726,33.907,301.396z"/>
			<path id="XMLID_427_" style="opacity:0.3;" d="M33.907,301.396l58.156-140.442h8.1l58.157,140.453
				c1.794,4.332-0.822,9.221-5.421,10.133l-0.947,0.188c-3.824,0.758-6.412,4.342-5.929,8.211l0,0
				c0.669,5.351-4.406,9.611-9.56,8.024l-2.871-0.884c-3.575-1.1-7.41,0.627-8.954,4.033l-2.891,6.376
				c-1.828,4.031-6.752,5.58-10.558,3.323l-11.283-6.69c-2.337-1.386-5.243-1.386-7.58,0l-11.283,6.69
				c-3.807,2.257-8.73,0.708-10.558-3.323l-2.893-6.378c-1.544-3.405-5.379-5.133-8.952-4.034l-2.875,0.884
				c-5.155,1.585-10.229-2.676-9.559-8.027l0-0.004c0.484-3.868-2.102-7.452-5.924-8.212l-0.956-0.19
				C34.728,310.614,32.114,305.726,33.907,301.396z"/>
			<path id="XMLID_426_" style="opacity:0.1;" d="M106.66,176.645l-6.497-14.761h-8.1l-10.743,25.012l-35.099,84.761
				c0.388,1.747,1.596,3.137,3.658,3.475l0.001,0c2.962,0.486,5.019,3.214,4.671,6.196l-0.126,1.078
				c-0.489,4.188,3.639,7.402,7.58,5.902l2.878-1.096c2.787-1.061,5.917,0.24,7.131,2.964l3.569,8.007
				c1.37,3.076,5.12,4.263,8.011,2.538l9.641-6.424c1.773-1.059,3.985-1.059,5.759,0l10.762,6.423
				c2.892,1.726,6.641,0.538,8.011-2.538l3.568-8.006c1.214-2.724,4.344-4.025,7.131-2.964l2.876,1.096
				c3.941,1.501,8.069-1.714,7.58-5.902l-0.126-1.075c-0.348-2.982,1.709-5.71,4.672-6.196c1.468-0.241,2.499-1.018,3.115-2.074
				L106.66,176.645z"/>
			<path id="XMLID_425_" style="fill:#27DEBF;" d="M46.873,260.561l45.19-105.22h8.1l46.313,105.222
				c1.668,3.384,0.715,7.418-3.008,8.028c-2.962,0.486-5.02,3.214-4.672,6.196l0.126,1.075c0.489,4.189-3.639,7.403-7.58,5.902
				l-2.876-1.096c-2.787-1.061-5.918,0.24-7.131,2.964l-3.568,8.006c-1.37,3.076-5.12,4.263-8.011,2.538l-10.762-6.423
				c-1.774-1.058-3.985-1.058-5.759,0l-9.641,6.424c-2.891,1.725-6.641,0.538-8.011-2.538l-3.569-8.007
				c-1.214-2.724-4.344-4.025-7.131-2.964l-2.878,1.096c-3.941,1.501-8.069-1.713-7.58-5.902l0.126-1.078
				c0.347-2.981-1.709-5.71-4.671-6.195l-0.001,0C46.157,267.978,45.205,263.945,46.873,260.561z"/>
			<path id="XMLID_424_" style="opacity:0.2;" d="M46.873,260.561l45.19-105.22h8.1l46.313,105.222
				c1.668,3.384,0.715,7.418-3.008,8.028c-2.962,0.486-5.02,3.214-4.672,6.196l0.126,1.075c0.489,4.189-3.639,7.403-7.58,5.902
				l-2.876-1.096c-2.787-1.061-5.918,0.24-7.131,2.964l-3.568,8.006c-1.37,3.076-5.12,4.263-8.011,2.538l-10.762-6.423
				c-1.774-1.058-3.985-1.058-5.759,0l-9.641,6.424c-2.891,1.725-6.641,0.538-8.011-2.538l-3.569-8.007
				c-1.214-2.724-4.344-4.025-7.131-2.964l-2.878,1.096c-3.941,1.501-8.069-1.713-7.58-5.902l0.126-1.078
				c0.347-2.981-1.709-5.71-4.671-6.195l-0.001,0C46.157,267.978,45.205,263.945,46.873,260.561z"/>
			<path id="XMLID_423_" style="opacity:0.1;" d="M100.163,155.34h-8.1l-32.932,76.677c0.253,0.217,0.528,0.416,0.83,0.585
				l0.252,0.141c1.732,0.971,2.737,2.866,2.569,4.845l0,0.002c-0.296,3.487,2.95,6.216,6.335,5.325l1.964-0.518
				c2.266-0.597,4.645,0.439,5.752,2.504l2.695,5.026c1.311,2.446,4.346,3.38,6.806,2.095l7.437-3.884
				c1.469-0.767,3.22-0.767,4.688,0l7.435,3.884c2.46,1.285,5.495,0.35,6.806-2.095l2.694-5.026
				c1.107-2.065,3.486-3.101,5.752-2.504l1.963,0.517c3.384,0.892,6.631-1.837,6.335-5.325c-0.168-1.979,0.837-3.874,2.569-4.845
				l0.251-0.141c0.552-0.309,1.007-0.717,1.39-1.174L100.163,155.34z"/>
			<path id="XMLID_422_" style="fill:#27DEBF;" d="M58.13,219.177l33.967-71.401l0.265-0.43c0.754-1.296,2.143-2.177,3.751-2.177
				c1.608,0,2.996,0.881,3.75,2.177l0.273,0.441l33.961,71.391c1.513,2.451,0.68,5.669-1.832,7.077l-0.251,0.141
				c-1.732,0.971-2.738,2.866-2.569,4.845c0.297,3.488-2.95,6.217-6.335,5.325l-1.963-0.517c-2.266-0.597-4.645,0.439-5.752,2.504
				l-2.694,5.026c-1.311,2.446-4.347,3.38-6.806,2.095l-7.436-3.884c-1.469-0.767-3.22-0.767-4.688,0l-7.437,3.884
				c-2.46,1.285-5.495,0.35-6.806-2.095l-2.695-5.026c-1.107-2.065-3.486-3.1-5.752-2.504l-1.964,0.518
				c-3.384,0.891-6.631-1.837-6.335-5.325l0-0.002c0.168-1.979-0.836-3.873-2.569-4.845l-0.252-0.141
				C57.45,224.845,56.617,221.628,58.13,219.177z"/>
			<path id="XMLID_415_" style="opacity:0.1;" d="M58.13,219.177l33.967-71.401l0.265-0.43c0.754-1.296,2.143-2.177,3.751-2.177
				c1.608,0,2.996,0.881,3.75,2.177l0.273,0.441l33.961,71.391c1.513,2.451,0.68,5.669-1.832,7.077l-0.251,0.141
				c-1.732,0.971-2.738,2.866-2.569,4.845c0.297,3.488-2.95,6.217-6.335,5.325l-1.963-0.517c-2.266-0.597-4.645,0.439-5.752,2.504
				l-2.694,5.026c-1.311,2.446-4.347,3.38-6.806,2.095l-7.436-3.884c-1.469-0.767-3.22-0.767-4.688,0l-7.437,3.884
				c-2.46,1.285-5.495,0.35-6.806-2.095l-2.695-5.026c-1.107-2.065-3.486-3.1-5.752-2.504l-1.964,0.518
				c-3.384,0.891-6.631-1.837-6.335-5.325l0-0.002c0.168-1.979-0.836-3.873-2.569-4.845l-0.252-0.141
				C57.45,224.845,56.617,221.628,58.13,219.177z"/>
		</g>
		<g id="XMLID_260_">
			<g id="XMLID_379_">
				<path id="XMLID_404_" style="fill:#37474F;" d="M100.644,360.79c0.081-3.106,2.633-5.604,5.765-5.604
					c3.131,0,5.679,2.497,5.759,5.604c0.005,0.055,0.005,0.106,0.005,0.161c0,0.055,0,0.106-0.005,0.161
					c-0.065,0.801-0.624,1.586-1.682,2.195c-2.25,1.299-5.906,1.299-8.156,0c-1.057-0.609-1.621-1.395-1.687-2.195
					c-0.005-0.055-0.005-0.106-0.005-0.161C100.639,360.895,100.639,360.845,100.644,360.79z"/>
				<path id="XMLID_380_" style="fill:#263238;" d="M102.33,363.307c-1.057-0.609-1.621-1.395-1.687-2.195
					c-0.005-0.055-0.005-0.106-0.005-0.161c0-0.055,0-0.106,0.005-0.161c0.055-2.111,1.253-3.939,2.997-4.895
					c-0.028,0.055-2.867,3.62-0.77,5.997c1.448,1.642,6.425,1.941,8.609,0.646c-0.259,0.276-0.589,0.536-0.994,0.769
					C108.236,364.606,104.58,364.606,102.33,363.307z"/>
			</g>
			<g id="XMLID_348_">
				<path id="XMLID_362_" style="fill:#455A64;" d="M109.963,363.691c0.057-2.194,1.86-3.957,4.071-3.957
					c2.211,0,4.011,1.764,4.067,3.957c0.004,0.039,0.004,0.075,0.004,0.114c0,0.039,0,0.075-0.004,0.114
					c-0.046,0.565-0.441,1.12-1.188,1.55c-1.59,0.917-4.171,0.917-5.76,0c-0.747-0.43-1.145-0.985-1.191-1.55
					c-0.004-0.039-0.004-0.075-0.004-0.114C109.959,363.766,109.959,363.73,109.963,363.691z"/>
				<path id="XMLID_361_" style="fill:#37474F;" d="M111.154,365.469c-0.747-0.43-1.145-0.985-1.191-1.55
					c-0.004-0.039-0.004-0.075-0.004-0.114c0-0.039,0-0.075,0.004-0.114c0.012-0.476,0.111-0.929,0.274-1.351
					c-0.1,1.745,0.727,2.805,3.299,3.133c2.652,0.338,4.253-0.762,4.474-1.159c-0.161,0.424-0.524,0.826-1.095,1.155
					C115.325,366.386,112.743,366.386,111.154,365.469z"/>
			</g>
			<g id="XMLID_273_">
				<path id="XMLID_320_" style="fill:#455A64;" d="M80.107,359.617c0.056-2.177,1.845-3.927,4.04-3.927
					c2.195,0,3.98,1.75,4.036,3.927c0.004,0.039,0.004,0.074,0.004,0.113c0,0.039,0,0.074-0.004,0.113
					c-0.046,0.561-0.437,1.112-1.178,1.538c-1.577,0.91-4.139,0.91-5.716,0c-0.741-0.427-1.136-0.977-1.182-1.538
					c-0.003-0.039-0.003-0.074-0.003-0.113C80.103,359.691,80.103,359.656,80.107,359.617z"/>
				<path id="XMLID_281_" style="fill:#37474F;" d="M81.289,361.381c-0.741-0.427-1.136-0.977-1.182-1.538
					c-0.003-0.039-0.003-0.074-0.003-0.113c0-0.039,0-0.074,0.003-0.113c0.012-0.472,0.11-0.922,0.272-1.341
					c-0.099,1.732,0.721,2.783,3.274,3.109c2.632,0.336,4.221-0.756,4.44-1.15c-0.16,0.421-0.52,0.82-1.087,1.147
					C85.428,362.292,82.866,362.292,81.289,361.381z"/>
			</g>
		</g>
	</g>
	<g id="Plants_2_">
		<g id="XMLID_913_">
			<path id="XMLID_932_" style="fill:#27DEBF;" d="M220.805,370.327l5.857-3.346c0,0,2.809-15.481,0.708-28.789
				c-2.954-18.711-15.694-25.165-20.32-23.305c-4.627,1.86-5.714,7.403,2.642,18.214
				C214.622,339.478,220.963,352.962,220.805,370.327z"/>
			<path id="XMLID_915_" style="opacity:0.3;" d="M220.805,370.327l5.857-3.346c0,0,2.809-15.481,0.708-28.789
				c-2.954-18.711-15.694-25.165-20.32-23.305c-4.627,1.86-5.714,7.403,2.642,18.214
				C214.622,339.478,220.963,352.962,220.805,370.327z"/>
			<path id="XMLID_914_" style="fill:#FFFFFF;" d="M222.928,362.896c-0.02,0-0.038-0.002-0.058-0.004
				c-0.229-0.032-0.388-0.242-0.357-0.471c2.421-17.517-4.624-36.709-12.539-44.443c-0.165-0.161-0.168-0.426-0.006-0.59
				c0.161-0.163,0.426-0.168,0.59-0.007c8.059,7.876,15.238,27.38,12.782,45.154C223.312,362.744,223.133,362.896,222.928,362.896z"
				/>
		</g>
		<g id="XMLID_907_">
			<path id="XMLID_912_" style="fill:#27DEBF;" d="M204.554,379.715c-0.925,0.531-2.833-0.63-3.564-1.121
				c-1.251-0.839-2.264-2.028-2.938-3.372c-0.783-1.564-0.981-3.241-0.736-4.971c0.127-0.897,0.379-1.772,0.629-2.643
				c0.246-0.855,0.492-1.711,0.738-2.566c0.243-0.844,0.488-1.717,0.376-2.588c-0.225-1.755-1.782-2.984-3.198-4.044
				c-1.566-1.173-3.197-2.72-3.188-4.833c0.007-1.63,0.851-3.144,1.861-4.423c1.01-1.279,2.209-2.41,3.122-3.76
				c0.657-0.972,1.17-2.114,1.063-3.283c-0.066-0.726-0.367-1.41-0.715-2.051c-0.746-1.376-1.73-2.635-2.245-4.113
				c-0.514-1.478-0.441-3.316,0.712-4.373c0.947-0.868,2.354-0.989,3.635-0.904c1.186,0.078,2.344,0.613,3.381,1.19
				c3.354,1.865,5.268,5.837,8.827,7.272c1.373,0.553,2.877,0.675,4.308,1.053c1.431,0.378,2.89,1.109,3.553,2.432
				c1.306,2.609-1.118,5.825-0.2,8.595c0.813,2.451,3.194,3.389,4.532,5.598c0.585,0.966,0.72,2.083,0.626,3.209
				c-0.16,1.905-0.439,3.303-1.353,5.422c-0.756,1.751-2.976,4.885-2.976,4.885C220.749,370.382,204.695,379.633,204.554,379.715z"
				/>
			<path id="XMLID_911_" style="opacity:0.15;" d="M204.554,379.715c-0.925,0.531-2.833-0.63-3.564-1.121
				c-1.251-0.839-2.264-2.028-2.938-3.372c-0.783-1.564-0.981-3.241-0.736-4.971c0.127-0.897,0.379-1.772,0.629-2.643
				c0.246-0.855,0.492-1.711,0.738-2.566c0.243-0.844,0.488-1.717,0.376-2.588c-0.225-1.755-1.782-2.984-3.198-4.044
				c-1.566-1.173-3.197-2.72-3.188-4.833c0.007-1.63,0.851-3.144,1.861-4.423c1.01-1.279,2.209-2.41,3.122-3.76
				c0.657-0.972,1.17-2.114,1.063-3.283c-0.066-0.726-0.367-1.41-0.715-2.051c-0.746-1.376-1.73-2.635-2.245-4.113
				c-0.514-1.478-0.441-3.316,0.712-4.373c0.947-0.868,2.354-0.989,3.635-0.904c1.186,0.078,2.344,0.613,3.381,1.19
				c3.354,1.865,5.268,5.837,8.827,7.272c1.373,0.553,2.877,0.675,4.308,1.053c1.431,0.378,2.89,1.109,3.553,2.432
				c1.306,2.609-1.118,5.825-0.2,8.595c0.813,2.451,3.194,3.389,4.532,5.598c0.585,0.966,0.72,2.083,0.626,3.209
				c-0.16,1.905-0.439,3.303-1.353,5.422c-0.756,1.751-2.976,4.885-2.976,4.885C220.749,370.382,204.695,379.633,204.554,379.715z"
				/>
			<g id="XMLID_908_">
				<path id="XMLID_910_" style="fill:#FFFFFF;" d="M214.062,374.649c-0.006,0-0.012,0-0.012,0c-0.236-0.01-0.415-0.205-0.406-0.435
					c0.69-16.58-7.122-34.884-12.803-40.202c-0.168-0.157-0.177-0.422-0.02-0.59c0.158-0.168,0.422-0.176,0.59-0.02
					c5.795,5.425,13.766,24.033,13.067,40.846C214.47,374.474,214.285,374.649,214.062,374.649z"/>
				<path id="XMLID_909_" style="fill:#FFFFFF;" d="M211.577,355.061c-0.041,0-0.082-0.006-0.123-0.019
					c-5.327-1.647-11.966-1.937-12.032-1.94c-0.231-0.01-0.409-0.205-0.4-0.435c0.01-0.23,0.184-0.412,0.435-0.401
					c0.068,0.003,6.812,0.298,12.244,1.977c0.22,0.068,0.344,0.302,0.276,0.522C211.921,354.946,211.756,355.061,211.577,355.061z"
					/>
			</g>
		</g>
	</g>
</g>
<g id="Signals">
	<g id="Signal_1_">
		<path style="fill:#37474F;" d="M439.549,126.105c-0.018-0.546-0.382-1.089-1.103-1.505c-1.48-0.854-3.879-0.854-5.359,0
			c-0.721,0.416-1.085,0.959-1.103,1.505h-0.007v189.832c0,1.185,1.695,2.146,3.786,2.146c2.091,0,3.786-0.961,3.786-2.146h0.007
			V126.105H439.549z"/>
		<ellipse style="fill:#455A64;" cx="435.763" cy="126.105" rx="3.786" ry="2.146"/>
		<g>
			<polygon style="fill:#27DEBF;" points="478.589,198.428 471.156,185.554 421.736,157.045 417.996,159.199 417.996,176.364 
				467.417,204.874 471.227,202.77 			"/>
			<g id="XMLID_65_">
				<polygon style="fill:#27DEBF;" points="417.997,159.199 467.417,187.709 474.849,200.583 467.417,204.874 417.997,176.364 				
					"/>
			</g>
			<g id="XMLID_64_" style="opacity:0.3;">
				<polygon points="417.997,159.199 467.417,187.709 474.871,200.621 467.417,204.874 417.997,176.364 				"/>
			</g>
			<polygon style="opacity:0.1;" points="471.156,185.554 467.417,187.709 417.997,159.199 421.736,157.045 			"/>
			<polygon style="opacity:0.2;" points="467.417,187.709 471.156,185.554 478.589,198.428 474.871,200.621 			"/>
		</g>
		<g>
			<g id="XMLID_63_">
				<polygon style="fill:#27DEBF;" points="462.34,154.697 412.92,126.141 405.487,130.433 412.92,143.306 462.34,171.862 				"/>
			</g>
			<g id="XMLID_62_">
				<polygon style="fill:#27DEBF;" points="412.92,126.141 416.553,123.96 466.046,152.558 462.34,154.697 				"/>
			</g>
			<g id="XMLID_61_" style="opacity:0.4;">
				<polygon style="fill:#FFFFFF;" points="412.92,126.141 416.553,123.96 466.046,152.558 462.34,154.697 				"/>
			</g>
			<polygon style="fill:#27DEBF;" points="466.046,169.723 462.34,171.862 462.34,154.697 466.046,152.558 			"/>
			<polygon style="opacity:0.1;" points="466.046,169.723 462.34,171.862 462.34,154.697 466.046,152.558 			"/>
		</g>
		<g>
			<g id="XMLID_60_">
				<polygon style="fill:#27DEBF;" points="449.854,207.737 400.434,179.181 393.001,183.473 400.434,196.346 449.854,224.902 				
					"/>
			</g>
			<g id="XMLID_59_">
				<polygon style="fill:#27DEBF;" points="400.434,179.181 404.066,177 453.559,205.598 449.854,207.737 				"/>
			</g>
			<g id="XMLID_58_" style="opacity:0.4;">
				<polygon style="fill:#FFFFFF;" points="400.434,179.181 404.066,177 453.559,205.598 449.854,207.737 				"/>
			</g>
			<polygon style="fill:#27DEBF;" points="453.559,222.763 449.854,224.902 449.854,207.737 453.559,205.598 			"/>
			<polygon style="opacity:0.1;" points="453.559,222.763 449.854,224.902 449.854,207.737 453.559,205.598 			"/>
		</g>
	</g>
</g>
<g id="Question_Marks_1_">
	<g id="Question_Marks_2_">
		<g>
			<path style="fill:#27DEBF;" d="M312.655,79.91c1.7-0.562,3.432-0.872,5.196-0.933c1.764-0.061,3.423,0.163,4.975,0.674
				c1.552,0.509,2.932,1.317,4.139,2.423c1.206,1.105,2.103,2.544,2.688,4.315c0.478,1.446,0.667,2.778,0.567,3.993
				c-0.101,1.217-0.363,2.366-0.787,3.448c-0.424,1.082-0.937,2.115-1.535,3.093c-0.599,0.981-1.166,1.91-1.697,2.785
				c-0.533,0.879-0.966,1.755-1.299,2.625c-0.334,0.873-0.423,1.724-0.269,2.556c0.058,0.422,0.009,0.819-0.148,1.191
				c-0.158,0.375-0.436,0.625-0.833,0.757l-4.123,1.361c-0.398,0.132-0.798,0.104-1.2-0.084c-0.403-0.188-0.651-0.485-0.747-0.896
				c-0.393-1.434-0.505-2.771-0.333-4.011c0.173-1.239,0.488-2.407,0.949-3.501c0.461-1.095,1.003-2.126,1.626-3.093
				c0.622-0.968,1.191-1.887,1.706-2.759c0.514-0.87,0.901-1.701,1.162-2.488c0.262-0.788,0.267-1.562,0.016-2.322
				c-0.454-1.373-1.405-2.313-2.855-2.817c-1.45-0.503-3.133-0.439-5.05,0.194c-3.074,1.014-4.826,3.298-5.257,6.849
				c-0.049,0.458-0.141,0.818-0.273,1.082c-0.134,0.266-0.436,0.476-0.907,0.631l-4.393,1.451c-0.325,0.107-0.642,0.091-0.948-0.048
				c-0.307-0.139-0.52-0.39-0.639-0.751c-0.383-1.277-0.419-2.698-0.114-4.263c0.304-1.564,0.907-3.086,1.801-4.565
				c0.897-1.478,2.072-2.84,3.526-4.081C309.054,81.481,310.739,80.543,312.655,79.91z M324.998,110.003
				c0.397-0.132,0.788-0.1,1.172,0.095c0.385,0.193,0.643,0.489,0.774,0.887l1.576,4.773c0.132,0.399,0.101,0.79-0.093,1.174
				c-0.193,0.386-0.488,0.643-0.886,0.774l-4.664,1.54c-0.399,0.131-0.79,0.101-1.175-0.094c-0.385-0.193-0.643-0.488-0.774-0.887
				l-1.576-4.774c-0.131-0.397-0.1-0.788,0.093-1.174c0.195-0.384,0.489-0.642,0.888-0.774L324.998,110.003z"/>
		</g>
		<g>
			<g>
				<path style="fill:#27DEBF;" d="M345.695,124.114c1.093-0.574,2.237-0.983,3.433-1.224c1.194-0.241,2.348-0.277,3.463-0.106
					c1.115,0.173,2.146,0.567,3.092,1.183c0.949,0.617,1.721,1.495,2.32,2.634c0.488,0.931,0.768,1.818,0.838,2.657
					c0.07,0.839,0.021,1.652-0.145,2.437c-0.167,0.784-0.398,1.545-0.696,2.28c-0.297,0.735-0.577,1.431-0.84,2.088
					c-0.263,0.658-0.459,1.304-0.587,1.935c-0.129,0.631-0.094,1.221,0.106,1.769c0.088,0.282,0.098,0.557,0.034,0.828
					c-0.066,0.272-0.227,0.475-0.482,0.609l-2.654,1.394c-0.257,0.135-0.532,0.161-0.828,0.078c-0.295-0.082-0.498-0.257-0.61-0.526
					c-0.43-0.932-0.657-1.829-0.679-2.694c-0.024-0.863,0.059-1.694,0.25-2.492c0.189-0.797,0.442-1.561,0.757-2.29
					c0.315-0.729,0.598-1.42,0.849-2.073c0.252-0.65,0.421-1.259,0.511-1.825c0.088-0.567,0.005-1.094-0.252-1.584
					c-0.464-0.883-1.219-1.415-2.264-1.595c-1.045-0.179-2.183,0.055-3.417,0.703c-1.978,1.039-2.913,2.793-2.805,5.26
					c0.018,0.316-0.003,0.572-0.064,0.768c-0.06,0.196-0.242,0.373-0.545,0.531l-2.827,1.485c-0.21,0.11-0.427,0.135-0.652,0.075
					c-0.225-0.061-0.397-0.207-0.52-0.44c-0.405-0.826-0.591-1.79-0.559-2.89c0.03-1.1,0.267-2.204,0.709-3.312
					c0.443-1.109,1.089-2.167,1.938-3.178C343.42,125.59,344.461,124.761,345.695,124.114z M357.504,143.208
					c0.256-0.134,0.526-0.157,0.811-0.069c0.284,0.09,0.493,0.262,0.627,0.517l1.614,3.073c0.135,0.256,0.158,0.526,0.069,0.81
					c-0.088,0.285-0.261,0.493-0.517,0.627l-3.002,1.577c-0.256,0.135-0.526,0.159-0.809,0.07c-0.285-0.088-0.493-0.261-0.628-0.516
					l-1.614-3.073c-0.133-0.255-0.157-0.525-0.069-0.81c0.089-0.284,0.261-0.493,0.517-0.628L357.504,143.208z"/>
			</g>
			<g style="opacity:0.2;">
				<path d="M345.695,124.114c1.093-0.574,2.237-0.983,3.433-1.224c1.194-0.241,2.348-0.277,3.463-0.106
					c1.115,0.173,2.146,0.567,3.092,1.183c0.949,0.617,1.721,1.495,2.32,2.634c0.488,0.931,0.768,1.818,0.838,2.657
					c0.07,0.839,0.021,1.652-0.145,2.437c-0.167,0.784-0.398,1.545-0.696,2.28c-0.297,0.735-0.577,1.431-0.84,2.088
					c-0.263,0.658-0.459,1.304-0.587,1.935c-0.129,0.631-0.094,1.221,0.106,1.769c0.088,0.282,0.098,0.557,0.034,0.828
					c-0.066,0.272-0.227,0.475-0.482,0.609l-2.654,1.394c-0.257,0.135-0.532,0.161-0.828,0.078c-0.295-0.082-0.498-0.257-0.61-0.526
					c-0.43-0.932-0.657-1.829-0.679-2.694c-0.024-0.863,0.059-1.694,0.25-2.492c0.189-0.797,0.442-1.561,0.757-2.29
					c0.315-0.729,0.598-1.42,0.849-2.073c0.252-0.65,0.421-1.259,0.511-1.825c0.088-0.567,0.005-1.094-0.252-1.584
					c-0.464-0.883-1.219-1.415-2.264-1.595c-1.045-0.179-2.183,0.055-3.417,0.703c-1.978,1.039-2.913,2.793-2.805,5.26
					c0.018,0.316-0.003,0.572-0.064,0.768c-0.06,0.196-0.242,0.373-0.545,0.531l-2.827,1.485c-0.21,0.11-0.427,0.135-0.652,0.075
					c-0.225-0.061-0.397-0.207-0.52-0.44c-0.405-0.826-0.591-1.79-0.559-2.89c0.03-1.1,0.267-2.204,0.709-3.312
					c0.443-1.109,1.089-2.167,1.938-3.178C343.42,125.59,344.461,124.761,345.695,124.114z M357.504,143.208
					c0.256-0.134,0.526-0.157,0.811-0.069c0.284,0.09,0.493,0.262,0.627,0.517l1.614,3.073c0.135,0.256,0.158,0.526,0.069,0.81
					c-0.088,0.285-0.261,0.493-0.517,0.627l-3.002,1.577c-0.256,0.135-0.526,0.159-0.809,0.07c-0.285-0.088-0.493-0.261-0.628-0.516
					l-1.614-3.073c-0.133-0.255-0.157-0.525-0.069-0.81c0.089-0.284,0.261-0.493,0.517-0.628L357.504,143.208z"/>
			</g>
		</g>
		<g>
			<g>
				<path style="fill:#27DEBF;" d="M368,110.285c0.328,0.101,0.574,0.306,0.741,0.617c0.165,0.312,0.198,0.631,0.098,0.959
					l-1.201,3.932c-0.1,0.329-0.306,0.575-0.617,0.74c-0.311,0.166-0.631,0.199-0.958,0.099l-3.842-1.174
					c-0.329-0.1-0.574-0.305-0.74-0.616c-0.167-0.312-0.199-0.631-0.098-0.959l1.2-3.933c0.1-0.328,0.304-0.574,0.617-0.74
					c0.31-0.165,0.629-0.198,0.958-0.098L368,110.285z M373.963,84.359c1.399,0.426,2.703,1.036,3.91,1.828
					c1.207,0.793,2.21,1.725,3.004,2.798c0.796,1.074,1.336,2.264,1.621,3.572c0.285,1.309,0.204,2.693-0.242,4.153
					c-0.364,1.192-0.866,2.17-1.506,2.934c-0.64,0.766-1.358,1.41-2.153,1.932c-0.795,0.523-1.624,0.97-2.485,1.343
					c-0.864,0.371-1.68,0.725-2.45,1.059s-1.473,0.715-2.106,1.14c-0.636,0.425-1.097,0.952-1.386,1.58
					c-0.16,0.31-0.381,0.551-0.662,0.726c-0.281,0.175-0.585,0.212-0.913,0.112l-3.397-1.037c-0.328-0.1-0.582-0.307-0.762-0.623
					c-0.18-0.316-0.207-0.632-0.076-0.951c0.415-1.144,0.971-2.089,1.673-2.836c0.701-0.746,1.462-1.377,2.287-1.891
					c0.823-0.513,1.672-0.946,2.546-1.298c0.872-0.352,1.686-0.699,2.442-1.038c0.755-0.339,1.404-0.71,1.952-1.114
					c0.545-0.403,0.915-0.917,1.106-1.543c0.345-1.132,0.153-2.207-0.578-3.229c-0.73-1.021-1.884-1.773-3.462-2.254
					c-2.533-0.773-4.783-0.075-6.747,2.093c-0.25,0.283-0.481,0.481-0.693,0.594c-0.215,0.114-0.514,0.112-0.902-0.006l-3.62-1.106
					c-0.268-0.082-0.471-0.241-0.611-0.479c-0.139-0.239-0.162-0.506-0.072-0.804c0.347-1.034,0.992-2.001,1.936-2.902
					c0.943-0.901,2.062-1.634,3.359-2.199c1.295-0.564,2.722-0.919,4.28-1.062C370.814,83.707,372.383,83.877,373.963,84.359z"/>
			</g>
			<g style="opacity:0.6;">
				<path style="fill:#FFFFFF;" d="M368,110.285c0.328,0.101,0.574,0.306,0.741,0.617c0.165,0.312,0.198,0.631,0.098,0.959
					l-1.201,3.932c-0.1,0.329-0.306,0.575-0.617,0.74c-0.311,0.166-0.631,0.199-0.958,0.099l-3.842-1.174
					c-0.329-0.1-0.574-0.305-0.74-0.616c-0.167-0.312-0.199-0.631-0.098-0.959l1.2-3.933c0.1-0.328,0.304-0.574,0.617-0.74
					c0.31-0.165,0.629-0.198,0.958-0.098L368,110.285z M373.963,84.359c1.399,0.426,2.703,1.036,3.91,1.828
					c1.207,0.793,2.21,1.725,3.004,2.798c0.796,1.074,1.336,2.264,1.621,3.572c0.285,1.309,0.204,2.693-0.242,4.153
					c-0.364,1.192-0.866,2.17-1.506,2.934c-0.64,0.766-1.358,1.41-2.153,1.932c-0.795,0.523-1.624,0.97-2.485,1.343
					c-0.864,0.371-1.68,0.725-2.45,1.059s-1.473,0.715-2.106,1.14c-0.636,0.425-1.097,0.952-1.386,1.58
					c-0.16,0.31-0.381,0.551-0.662,0.726c-0.281,0.175-0.585,0.212-0.913,0.112l-3.397-1.037c-0.328-0.1-0.582-0.307-0.762-0.623
					c-0.18-0.316-0.207-0.632-0.076-0.951c0.415-1.144,0.971-2.089,1.673-2.836c0.701-0.746,1.462-1.377,2.287-1.891
					c0.823-0.513,1.672-0.946,2.546-1.298c0.872-0.352,1.686-0.699,2.442-1.038c0.755-0.339,1.404-0.71,1.952-1.114
					c0.545-0.403,0.915-0.917,1.106-1.543c0.345-1.132,0.153-2.207-0.578-3.229c-0.73-1.021-1.884-1.773-3.462-2.254
					c-2.533-0.773-4.783-0.075-6.747,2.093c-0.25,0.283-0.481,0.481-0.693,0.594c-0.215,0.114-0.514,0.112-0.902-0.006l-3.62-1.106
					c-0.268-0.082-0.471-0.241-0.611-0.479c-0.139-0.239-0.162-0.506-0.072-0.804c0.347-1.034,0.992-2.001,1.936-2.902
					c0.943-0.901,2.062-1.634,3.359-2.199c1.295-0.564,2.722-0.919,4.28-1.062C370.814,83.707,372.383,83.877,373.963,84.359z"/>
			</g>
		</g>
	</g>
</g>
<g id="Character">
	<g id="Character_1_">
		<g id="XMLID_34_">
			<path id="XMLID_57_" style="fill:#455A64;" d="M313.697,348.64c0.106,1.801,0.303,3.423-0.435,5.388
				c-1.059,2.819-3.203,4.076-4.469,5.171c-1.266,1.095-2.684,2.723-3.712,4.319c-0.914,1.419-1.951,3.049-3.876,4.651
				c-1.202,1-4.529,1.025-6.119,0.319c-1.59-0.706-2.116-1.321-1.965-3.88c0.147-2.5,7.932-3.276,7.932-3.276L313.697,348.64z"/>
			<path id="XMLID_56_" style="fill:#27DEBF;" d="M294.278,356.991c-0.668,0.238-0.86,1.496-1.011,4.003
				c-0.114,1.897-0.968,4.66,1.623,5.909c2.09,1.008,5.474,0.434,6.935-1.327c1.823-2.198,3.065-4.139,5.658-6.813
				c2.249-2.32,4.558-3.07,5.631-7.775c0.69-3.025,0.22-4.292-1.806-5.205c-2.786-1.254-7.28,2.571-9.495,3.143
				C299.906,349.417,294.945,356.753,294.278,356.991z"/>
			<path id="XMLID_55_" style="opacity:0.2;" d="M294.278,356.991c-0.668,0.238-0.86,1.496-1.011,4.003
				c-0.114,1.897-0.968,4.66,1.623,5.909c2.09,1.008,5.474,0.434,6.935-1.327c1.823-2.198,3.065-4.139,5.658-6.813
				c2.249-2.32,4.558-3.07,5.631-7.775c0.69-3.025,0.22-4.292-1.806-5.205c-2.786-1.254-7.28,2.571-9.495,3.143
				C299.906,349.417,294.945,356.753,294.278,356.991z"/>
			<path id="XMLID_54_" style="fill:#FAFAFA;" d="M301.813,348.924c0.118-0.03,0.246-0.074,0.377-0.122
				c4.049,0.434,5.614,3.26,6.005,4.112c0.359,0.834-0.81,1.454-1.484,0.797c-1.508-3.152-4.719-3.909-6-4.088
				C301.132,349.262,301.513,349.002,301.813,348.924z"/>
			<path id="XMLID_53_" style="fill:#FAFAFA;" d="M299.967,350.318c3.737,0.578,5.197,3.247,5.574,4.07
				c0.358,0.834-0.81,1.455-1.484,0.797c-1.195-2.5-3.466-3.494-4.995-3.888C299.371,350.948,299.675,350.615,299.967,350.318z"/>
			<g id="XMLID_43_">
				<path id="XMLID_52_" style="fill:#455A64;" d="M348.239,388.164c0.387,2.135-0.405,3.229-3.181,4.758
					c-2.776,1.529-7.094,1.986-11.598,0.578c-4.504-1.409-6.629-3.429-8.503-3.938c-1.873-0.508-6.53-0.642-8.38-1.224
					c-1.849-0.582-1.802-1.536-1.747-3.773L348.239,388.164z"/>
				<g id="XMLID_50_">
					<path id="XMLID_51_" style="fill:#27DEBF;" d="M316.87,373.819c0,0-0.938,2.661-1.461,4.994
						c-0.416,1.855-1.021,4.956-0.397,6.37c0.624,1.414,3.15,2.369,7.094,2.418c2.555,0.032,6.5,1.846,9.195,3.422
						c2.783,1.627,5.837,1.694,8.821,1.404c3.517-0.341,7.193-2.303,7.789-3.745c0.596-1.441,0.765-2.529-7.433-6.218
						c-0.075-0.034-9.524-3.737-13.436-8.232L316.87,373.819z"/>
				</g>
				<g id="XMLID_48_" style="opacity:0.2;">
					<path id="XMLID_49_" d="M316.87,373.819c0,0-0.938,2.661-1.461,4.994c-0.416,1.855-1.021,4.956-0.397,6.37
						c0.624,1.414,3.15,2.369,7.094,2.418c2.555,0.032,6.5,1.846,9.195,3.422c2.783,1.627,5.837,1.694,8.821,1.404
						c3.517-0.341,7.193-2.303,7.789-3.745c0.596-1.441,0.765-2.529-7.433-6.218c-0.075-0.034-9.524-3.737-13.436-8.232
						L316.87,373.819z"/>
				</g>
				<path id="XMLID_47_" style="fill:#FAFAFA;" d="M332.418,391.587c0,0,0.851-7.086,6.663-9.001
					c5.254-1.731,9.732,2.227,9.157,5.577C347.852,390.417,341.398,395.424,332.418,391.587z"/>
				<path id="XMLID_46_" style="fill:#FAFAFA;" d="M337.648,381.227c0,0-1.86-0.038-3.974,1.67
					c-1.692,1.367-1.759,2.297-1.759,2.297c-0.392,0.575-1.608,0.231-1.491-0.75c0,0,0.459-3.573,5.187-4.212
					C335.61,380.232,336.913,379.935,337.648,381.227z"/>
				<path id="XMLID_45_" style="fill:#FAFAFA;" d="M334.379,379.581c0,0-1.895-0.207-4.009,1.5
					c-1.692,1.367-1.724,2.466-1.724,2.466c-0.392,0.575-1.608,0.231-1.491-0.75c0,0,0.459-3.573,5.187-4.212
					C332.342,378.586,333.644,378.289,334.379,379.581z"/>
				<path id="XMLID_44_" style="fill:#FAFAFA;" d="M331.142,377.646c0,0-1.876-0.336-4.102,1.223
					c-1.782,1.248-1.889,2.343-1.889,2.343c-0.43,0.547-1.62,0.121-1.436-0.85c0,0,0.702-3.534,5.462-3.848
					C329.177,376.514,330.497,376.307,331.142,377.646z"/>
			</g>
			<g id="XMLID_41_">
				<path id="XMLID_42_" style="fill:#FFA8A7;" d="M294.359,352.932l-0.097,4.816c0,0,3.153,2.525,7.779,0.366
					c0.141-0.294,0.626-5.016,0.626-5.016L294.359,352.932z"/>
			</g>
			<g id="XMLID_39_">
				<path id="XMLID_40_" style="fill:#FFA8A7;" d="M316.936,370.489c0,0-0.035,2.286-0.072,3.592
					c-0.038,1.306,1.466,3.284,5.462,3.221c2.807-0.044,4.78-0.759,4.715-3.071l0.067-3.33L316.936,370.489z"/>
			</g>
			<g id="XMLID_37_">
				<path id="XMLID_38_" style="fill:#455A64;" d="M289.984,311.957c0.464-10.154,2.643-14.57,2.643-14.57
					s-0.526-12.563-1.906-27.961c-2.101-23.441-0.243-26.914,4.582-37.345c0,0,38.867-4.237,39.74,12.149
					c1.087,20.407,0.433,61.856-0.252,69.044c-0.685,7.188-0.544,0.536-2.585,15.071c-1.614,11.497-5.097,42.556-5.097,42.556
					c-5.282,2.72-10.172-0.412-10.172-0.412s-2.455-38.14-1.951-46.439c0.616-10.134,1.243-12.703,1.243-12.703
					s-3.945-32.924-4.551-38.224c0,0-0.831,9.447-1.516,16.634c-0.685,7.187-0.756,12.986-2.572,27.845
					c-1.424,11.654-4.811,36.81-4.811,36.81c-4.694,1.872-8.573-0.805-8.573-0.805S289.609,320.172,289.984,311.957z"/>
			</g>
			<path id="XMLID_36_" style="fill:#FAFAFA;" d="M311.754,354.457c0,0-0.108-5.628-7.693-6.562l-0.441,0.238
				c0,0,1.255-2.181,3.797-2.812c2.542-0.631,4.523,0.062,5.816,1.798C314.525,348.855,313.089,353.387,311.754,354.457z"/>
			<path id="XMLID_35_" style="fill:#37474F;" d="M311.677,273.123l-0.494-6.728c0,0-5.86-1.919-12.011-6.03
				c0,0,2.691,5.332,9.673,7.339l1.212,6.602l0.104,15.452L311.677,273.123z"/>
		</g>
		<g>
			<path style="fill:#FFA8A7;" d="M297.716,141.062c-2.122,2.656-17.877,28.02-20.179,32.771c-2.302,4.751-2.855,7.826,0.785,11.667
				c5.47,5.771,19.257,19.689,19.257,19.689l7.719-18.422l-14.318-8.986l14.021-29.631L297.716,141.062z"/>
			<path style="fill:#F28F8F;" d="M290.981,177.779c0,0-3.919-1.377-7.188,0.744c0,0,2.58-3.643,7.913-2.276L290.981,177.779z"/>
			<path style="fill:#455A64;" d="M305.674,185.322c-0.021-0.002-12.692-6.286-12.692-6.286
				c-4.671-0.669-10.758,6.638-10.578,12.235l11.103,9.796L305.674,185.322z"/>
		</g>
		<g id="XMLID_32_">
			<path style="fill:#FFA8A7;" d="M307.512,175.935l-0.797,8.806l0,0c-1.982,0.619-1.637,3.41-0.465,5.132l-0.234,2.591
				l12.958,1.171l1.945-14.879L307.512,175.935z"/>
			<path id="XMLID_33_" style="fill:#37474F;" d="M293.247,191.143c1.439-3.917,7.126-6.923,10.572-6.652
				c1.33,0.104,2.895,0.25,2.895,0.25c-0.802,1.604,0.356,2.744,2.452,3.347c2.705,0.779,7.675,1.226,10.605-0.511l0.091-0.742
				c0,0,5.526,1.572,7.155,2.185c4.578,1.725,6.09,2.606,10.837,14.924c2.03,5.268,0.777,10.729-4.689,13.709
				c-0.406,3.253-0.868,8.382-0.868,8.382c2.465,11.301,3.312,21.171,3.312,21.171s-2.882,6.537-22.83,5.438
				c-15.449-0.852-22.64-8.669-22.64-8.669c0.38-3.794,2.779-9.848,7.697-21.269C292.021,206.289,291.112,196.956,293.247,191.143z"
				/>
		</g>
		<g>
			<g id="XMLID_11_">
				<g id="XMLID_30_">
					<path id="XMLID_31_" style="fill:#E0E0E0;" d="M375.73,183.02c-0.016-0.002-0.032-0.006-0.047-0.014
						c-1.235-0.642-1.939-1.951-1.793-3.335c0.194-1.843,1.851-3.184,3.694-2.99c0.072,0.008,0.125,0.073,0.117,0.145
						c-0.008,0.073-0.073,0.125-0.145,0.118c-1.698-0.179-3.225,1.057-3.404,2.755c-0.134,1.276,0.514,2.482,1.653,3.074
						c0.065,0.034,0.09,0.113,0.056,0.178C375.836,182.999,375.783,183.026,375.73,183.02z"/>
				</g>
				<g id="XMLID_27_">
					<path id="XMLID_29_" style="fill:#455A64;" d="M373.691,180.285l0.758,0.938c0.266,0.685,0.804,1.349,1.417,1.753l0.758,0.938
						l0.561-0.454l-0.004-0.005c0.313-0.203,0.467-0.616,0.379-1.176c-0.164-1.039-1.092-2.188-2.074-2.566
						c-0.53-0.204-0.965-0.14-1.23,0.124l-0.004-0.005L373.691,180.285z"/>
					<path id="XMLID_28_" style="fill:#263238;" d="M375.454,183.981c0.982,0.378,1.645-0.158,1.481-1.198
						c-0.164-1.039-1.092-2.188-2.074-2.566c-0.982-0.378-1.645,0.158-1.481,1.198C373.544,182.454,374.473,183.603,375.454,183.981
						z"/>
				</g>
				<g>
					<path id="XMLID_26_" style="fill:#37474F;" d="M372.926,181.761l2.095,2.592l0.891-0.721l-0.003-0.004
						c0.224-0.145,0.334-0.44,0.271-0.84c-0.117-0.742-0.78-1.563-1.481-1.832c-0.378-0.146-0.689-0.1-0.878,0.089l-0.003-0.004
						L372.926,181.761z"/>
				</g>
				<path id="XMLID_25_" style="fill:#27DEBF;" d="M353.667,190.932l1.014,3.207c0.001,0.004,0.003,0.008,0.004,0.012l0.008,0.024
					l0.001,0c0.511,1.571,2.054,2.812,4.514,3.356c4.952,1.094,11.742-1.052,15.165-4.794c1.701-1.859,2.25-3.762,1.765-5.341
					l0.001,0l-0.007-0.024c-0.001-0.004-0.003-0.008-0.004-0.012l-1.014-3.207l-1.271,0.64c-0.631-0.345-1.377-0.622-2.238-0.812
					c-4.952-1.094-11.742,1.053-15.165,4.794c-0.59,0.645-1.038,1.295-1.356,1.935L353.667,190.932z"/>
				<path id="XMLID_24_" style="opacity:0.3;" d="M353.667,190.932l1.014,3.207c0.001,0.004,0.003,0.008,0.004,0.012l0.008,0.024
					l0.001,0c0.511,1.571,2.054,2.812,4.514,3.356c4.952,1.094,11.742-1.052,15.165-4.794c1.701-1.859,2.25-3.762,1.765-5.341
					l0.001,0l-0.007-0.024c-0.001-0.004-0.003-0.008-0.004-0.012l-1.014-3.207l-1.271,0.64c-0.631-0.345-1.377-0.622-2.238-0.812
					c-4.952-1.094-11.742,1.053-15.165,4.794c-0.59,0.645-1.038,1.295-1.356,1.935L353.667,190.932z"/>
				<g id="XMLID_22_">
					<path id="XMLID_23_" style="fill:#E0E0E0;" d="M376.88,183.365c-0.421-0.044-0.824-0.165-1.196-0.359
						c-0.065-0.034-0.09-0.113-0.056-0.178c0.034-0.065,0.113-0.09,0.178-0.056c0.343,0.178,0.714,0.29,1.102,0.33
						c1.698,0.179,3.225-1.057,3.404-2.755s-1.057-3.225-2.755-3.404c-0.073-0.008-0.125-0.073-0.117-0.145
						c0.008-0.073,0.073-0.125,0.145-0.117c1.843,0.194,3.184,1.851,2.99,3.694C380.38,182.217,378.723,183.559,376.88,183.365z"/>
				</g>
				<path id="XMLID_21_" style="fill:#27DEBF;" d="M370.579,180.737c-4.952-1.094-11.742,1.053-15.165,4.794
					c-3.424,3.742-2.184,7.662,2.768,8.756c4.952,1.094,11.742-1.052,15.165-4.794C376.771,185.751,375.532,181.831,370.579,180.737
					z"/>
				<path id="XMLID_20_" style="opacity:0.2;" d="M370.579,180.737c-4.952-1.094-11.742,1.053-15.165,4.794
					c-3.424,3.742-2.184,7.662,2.768,8.756c4.952,1.094,11.742-1.052,15.165-4.794C376.771,185.751,375.532,181.831,370.579,180.737
					z"/>
				<path id="XMLID_19_" style="fill:#27DEBF;" d="M357.018,187c2.901-3.17,8.896-5.066,13.092-4.139
					c1.015,0.225,1.829,0.596,2.354,1.077c0.566,0.518,0.698,1.122,0.606,1.714c-0.15,0.961-0.889,1.891-1.329,2.372
					c-2.9,3.171-8.895,5.066-13.092,4.14c-1.015-0.225-1.83-0.597-2.354-1.077c-0.033-0.03-0.064-0.061-0.093-0.091
					C354.88,189.645,356.323,187.76,357.018,187z"/>
				<path id="XMLID_18_" style="opacity:0.5;" d="M357.018,187c2.901-3.17,8.896-5.066,13.092-4.139
					c1.015,0.225,1.829,0.596,2.354,1.077c0.566,0.518,0.698,1.122,0.606,1.714c-0.15,0.961-0.889,1.891-1.329,2.372
					c-2.9,3.171-8.895,5.066-13.092,4.14c-1.015-0.225-1.83-0.597-2.354-1.077c-0.033-0.03-0.064-0.061-0.093-0.091
					C354.88,189.645,356.323,187.76,357.018,187z"/>
				<path id="XMLID_17_" style="fill:#F0F0F0;" d="M357.531,188.621c2.901-3.17,8.896-5.065,13.091-4.138
					c1.016,0.224,1.83,0.597,2.354,1.077c0.033,0.03,0.064,0.061,0.094,0.092c-0.15,0.961-0.889,1.891-1.329,2.372
					c-2.9,3.171-8.895,5.066-13.092,4.14c-1.015-0.225-1.83-0.597-2.354-1.077c-0.033-0.03-0.064-0.061-0.093-0.091
					C356.351,190.032,357.091,189.101,357.531,188.621z"/>
				<g id="XMLID_12_">
					<path id="XMLID_16_" style="fill:#455A64;" d="M363.178,188.334l-2.889,2.159c-0.228,0.17,0.052,0.337,0.354,0.212l3.844-1.587
						L363.178,188.334z"/>
					<path id="XMLID_15_" style="fill:#455A64;" d="M365.512,188.546l2.889-2.159c0.228-0.17-0.052-0.337-0.354-0.212l-3.844,1.587
						L365.512,188.546z"/>
					<path id="XMLID_14_" style="fill:#27DEBF;" d="M365.539,189.155c-0.895,0.498-2.155,0.582-2.814,0.187
						c-0.659-0.395-0.468-1.118,0.427-1.616c0.895-0.498,2.155-0.582,2.814-0.187C366.625,187.933,366.434,188.657,365.539,189.155z
						"/>
					<path id="XMLID_13_" style="fill:#37474F;" d="M365.115,188.901c-0.577,0.321-1.39,0.375-1.815,0.121
						c-0.425-0.255-0.302-0.721,0.276-1.043c0.577-0.321,1.39-0.375,1.815-0.121C365.816,188.113,365.692,188.58,365.115,188.901z"
						/>
				</g>
			</g>
			<path style="fill:#FFA8A7;" d="M377.018,186.392c-1.079-1.538-1.803-1.918-1.803-1.918l0.835,2.64
				c0.649,1.945-0.768,4.506-2.179,5.959c-0.952,0.98-2.731,2.147-2.877,1.784c-0.203-0.507,0.093-3.005-0.419-5.252
				c-0.616-2.703-2.219-1.39-2.636,0.641c-0.228,1.109-1.432,3.931-1.773,6.08c-0.418,2.631,0.129,4.884-0.662,6.788
				c-0.618,1.486-7.045,9.511-10.741,13.804c-3.839-5.12-9.046-11.788-13.511-17.513c-6.287-8.06-7.583-9.751-12.623-9.916
				c-3.997,11.543,2.857,23.166,2.857,23.166s9.451,11.488,15.343,17.525c5.688,5.828,7.686,5.333,10.414,3.009
				c2.728-2.324,9.766-12.748,12.781-18.536c3.024-5.807,6.209-10.172,7.996-13.24C381.028,196.246,380.135,190.834,377.018,186.392
				z"/>
			<g id="XMLID_9_">
				<path id="XMLID_10_" style="fill:#455A64;" d="M327.018,189.02c0,0,4.723-0.671,7.908,1.881
					c0.728,0.583,3.187,2.993,5.433,5.996c4.41,5.897,12.633,16.865,12.633,16.865s-3.363,7.282-12.862,10.008
					c0,0-8.075-8.447-11.101-12.638C323.671,203.713,324.22,193.133,327.018,189.02z"/>
			</g>
		</g>
		<g>
			<path style="fill:#27DEBF;" d="M306.715,184.741c0,0-6.462,2.863-7.768,7l-6.066-0.763c0,0,2.582-4.735,7.713-6.237
				C303.865,183.783,306.715,184.741,306.715,184.741z"/>
			<path style="opacity:0.2;" d="M306.715,184.741c0,0-6.462,2.863-7.768,7l-6.066-0.763c0,0,2.582-4.735,7.713-6.237
				C303.865,183.783,306.715,184.741,306.715,184.741z"/>
		</g>
		<g>
			<path style="fill:#27DEBF;" d="M320.736,197.65c0,0,2.519-7.62,6.281-8.63c0,0-2.517-1.774-6.771-2.055
				c0,0-3.593,2.331-5.792,7.1L320.736,197.65z"/>
			<path style="opacity:0.2;" d="M320.736,197.65c0,0,2.519-7.62,6.281-8.63c0,0-2.517-1.774-6.771-2.055c0,0-3.593,2.331-5.792,7.1
				L320.736,197.65z"/>
		</g>
		<g>
			<path style="fill:#27DEBF;" d="M296.494,189.02c-3.608-0.046-10.699,4.505-11.954,7.317c-1.317,2.95-6.228,39.907-3.141,43.623
				c3.873,4.663,21.655,15.216,29.97,14.923c6.86-0.242,13.598-5.441,14.637-7.279c1.702-3.012-0.597-44.04-2.787-47.489
				C319.67,194.526,301.091,189.079,296.494,189.02z"/>
			<path style="opacity:0.2;" d="M319.328,196.688l-3.563,2.404c-3.582,2.068-5.525,7.52-5.462,20.572
				c0.063,13.052-0.195,30.73,1.894,32.592c2.028,1.807,6.303,0.594,6.555,0.521c3.751-1.597,6.591-3.998,7.254-5.172
				c1.702-3.012-0.597-44.04-2.787-47.489C322.464,198.926,321.079,197.771,319.328,196.688z"/>
			<path style="opacity:0.1;" d="M324.788,248.997c-2.45,2.28-7.9,5.69-13.42,5.89c-8.31,0.29-26.1-10.27-29.97-14.93
				c-3.08-3.71,1.822-40.672,3.142-43.622c1.26-2.81,8.35-7.36,11.95-7.32c3.62,0.05,16.358,3.662,22.838,7.672l-3.56,2.4
				c-3.58,2.07-5.53,7.52-5.46,20.58c0.06,13.05-0.2,30.73,1.89,32.59c2.03,1.8,6.3,0.59,6.55,0.52
				C321.338,251.678,323.478,250.197,324.788,248.997z"/>
			<path style="fill:#27DEBF;" d="M296.121,189.02c-3.961,0-9.942,3.218-11.953,6.338c-2.01,3.12-3.444,12.197-1.969,14.865
				c1.452,2.626,11.295,7.971,17.989,10.702c5.35,2.183,8.147,1.616,10.041,0.266c1.205-0.859,1.415-3.421,1.505-5.32
				c0.233-4.883-0.168-7.495,2.777-10.361c2.946-2.866,8.189-5.283,9.08-3.122c0,0,1.187-3.252-4.9-6.389
				C308.602,190.801,300.996,189.021,296.121,189.02z"/>
			<g>
				<path style="fill:#455A64;" d="M301.795,214.721l3.532,1.343c0,0-0.463,10.77-0.452,14.983c0,0-0.824,1.814-1.594,2.112
					c-0.77,0.298-1.777-1.734-1.945-3.257C301.169,228.38,301.421,218.369,301.795,214.721z"/>
				<path style="fill:#37474F;" d="M301.693,215.556l3.592,1.245c0.432,0.15,0.815-0.101,0.852-0.556l0.138-1.739
					c0.03-0.376-0.236-0.788-0.591-0.916l-3.611-1.3c-0.428-0.154-0.806,0.091-0.84,0.545l-0.135,1.816
					C301.07,215.025,301.338,215.433,301.693,215.556z"/>
				<path style="fill:#E0E0E0;" d="M303.054,228.108c0.544,0.221,0.986,0.893,0.986,1.5c0,0.608-0.441,0.935-0.986,0.731
					c-0.545-0.204-0.986-0.876-0.986-1.5C302.068,228.214,302.51,227.887,303.054,228.108z"/>
			</g>
			<g>
				<path style="fill:#455A64;" d="M287.014,206.994l3.458,1.524c0,0-1.019,10.732-1.225,14.94c0,0-0.916,1.77-1.701,2.027
					c-0.785,0.258-1.685-1.823-1.774-3.353C285.683,220.603,286.452,210.618,287.014,206.994z"/>
				<path style="fill:#37474F;" d="M286.869,207.823l3.523,1.429c0.424,0.172,0.819-0.058,0.879-0.512l0.228-1.729
					c0.049-0.374-0.195-0.8-0.543-0.946l-3.539-1.485c-0.42-0.176-0.81,0.049-0.867,0.501l-0.229,1.806
					C286.275,207.261,286.521,207.681,286.869,207.823z"/>
				<path style="fill:#E0E0E0;" d="M287.58,220.428c0.532,0.249,0.938,0.942,0.907,1.549c-0.031,0.607-0.489,0.911-1.022,0.68
					c-0.533-0.232-0.939-0.925-0.907-1.549C286.59,220.484,287.048,220.179,287.58,220.428z"/>
			</g>
			<path style="fill:#27DEBF;" d="M283.2,227.539c-0.034,4.311-0.122,6.089,0.075,8.161c0.135,1.418,0.399,2.677,2.489,4.166
				c2.09,1.489,11.094,6.225,13.76,7.49c3.261,1.547,6.811,2.574,6.755,0.051c-0.049-2.204-0.004-6.91,0-8.513
				c0.005-1.982-0.954-3.271-4.995-5.141c-3.832-1.773-12.363-6.568-14.728-7.647C284.557,225.194,283.21,226.249,283.2,227.539z"/>
		</g>
		<g id="XMLID_1_">
			<g id="XMLID_7_">
				<path id="XMLID_8_" style="fill:#263238;" d="M329.337,158.808c0,0,6.812-8.782,1.751-13.536
					c-5.991-5.629-13.949-5.51-24.336-1.887c-4.865,1.696-11.936,6.622-12.56,16.169c-0.481,7.363,20.054,12.794,19.585,17.838
					L329.337,158.808z"/>
			</g>
			<g id="XMLID_5_">
				<path id="XMLID_6_" style="fill:#F28F8F;" d="M331.088,162.635c0,0,2.786,4.469,2.394,4.923
					c-0.391,0.454-2.251,0.899-2.251,0.899L331.088,162.635z"/>
			</g>
			<g id="XMLID_3_">
				<path id="XMLID_4_" style="fill:#FFA8A7;" d="M322.589,148.485c2.784,1.535,7.59,4.362,8.565,14.795
					c1,10.71-1.477,14.356-2.97,15.716c-1.008,0.918-6.087,1.124-8.708,0.232c-3.281-1.117-10.353-4.852-13.565-10.452
					c-3.778-6.589-4.362-15.251,0.293-18.515C312.753,145.665,320.233,147.186,322.589,148.485z"/>
			</g>
			<path style="fill:#F28F8F;" d="M320.821,179.556c2.322,0.41,5.404,0.281,6.799-0.247c-3.703,0.117-6.701-1.917-6.701-1.917
				L320.821,179.556z"/>
			<path id="XMLID_2_" style="fill:#263238;" d="M322.451,161.09c0,0,5.744-1.762,6.796-8.558c1.052-6.795-7.437-9.672-7.437-9.672
				L322.451,161.09z"/>
			<path style="fill:#263238;" d="M321.552,170.434c-0.558,0.885-2.751,1.724-5.062-0.669c-2.379-2.464-2.233-6.766,1.085-7.775
				c3.296-1.002,4.92,2.845,4.92,2.845c3.114-6.076,0.916-15.881,0.916-15.881s-7.237-7.452-18.979-3.893
				c-6.312,1.913-9.556,8.499-10.249,13.407c-0.693,4.908-2.59,13.681-0.145,16.867c2.494,3.25,11.913,8.096,20.417,7.686
				c8.519-0.41,8.519-2.09,8.519-2.09l-1.308-10.734C321.666,170.197,321.628,170.288,321.552,170.434z"/>
		</g>
		<path style="fill:#FFA8A7;" d="M297.716,141.062c3.306-4.02,8.538-3.07,12.6-2.405c4.062,0.665,10.038,1.245,8.975,3.951
			c-1.063,2.706-4.041,5.229-11.015,4.554c-6.962-0.673-8.289-0.002-9.852,1.852C298.425,149.013,293.844,147.161,297.716,141.062z"
			/>
	</g>
</g>
</svg>
