<?xml version="1.0" encoding="UTF-8"?><svg id="b" xmlns="http://www.w3.org/2000/svg" xmlns:xlink="http://www.w3.org/1999/xlink" viewBox="0 0 257.181 193.83"><defs><style>.i,.j{opacity:.68;}.k{stroke-width:1.067px;}.k,.l,.m,.n,.o,.p,.q,.r{fill:none;}.k,.l,.m,.n,.p,.q{stroke:#fdf5f0;}.k,.l,.m,.n,.p,.q,.r{stroke-linecap:round;stroke-linejoin:round;}.l{stroke-width:1.248px;}.m{stroke-width:1.104px;}.s{fill:#c4c37a;}.t{fill:#fdf5f0;}.u{fill:#fdc5c2;}.v{fill:url(#f);}.w{fill:url(#g);}.n{stroke-width:1.872px;}.x{fill:url(#d);}.y{fill:#79e6fd;opacity:.79;}.j{fill:url(#e);}.p{stroke-width:.889px;}.z{fill:#0062f2;}.aa{clip-path:url(#h);}.ab{fill:#fde746;}.q{stroke-width:2.107px;}.ac{fill:#4c3d76;}.r{stroke:#79e6fd;stroke-width:10.608px;}</style><linearGradient id="d" x1="225.674" y1="-.16" x2="226.137" y2="124.835" gradientUnits="userSpaceOnUse"><stop offset="0" stop-color="#fc6800"/><stop offset=".259" stop-color="#fc7744"/><stop offset=".517" stop-color="#fc8582"/><stop offset=".734" stop-color="#fc8fae"/><stop offset=".902" stop-color="#fc95c9"/><stop offset="1" stop-color="#fd98d4"/></linearGradient><linearGradient id="e" x1="174.097" y1="131.58" x2="188.541" y2="196.58" gradientUnits="userSpaceOnUse"><stop offset="0" stop-color="#09bea3"/><stop offset=".542" stop-color="#048ecb"/><stop offset="1" stop-color="#0063f1"/></linearGradient><linearGradient id="f" x1="16.887" y1="35.76" x2="48.663" y2="128.92" gradientUnits="userSpaceOnUse"><stop offset="0" stop-color="#79e6fd" stop-opacity=".79"/><stop offset=".346" stop-color="#a2eaf9" stop-opacity=".853"/><stop offset="1" stop-color="#f7f4f1" stop-opacity=".983"/></linearGradient><linearGradient id="g" x1="-1123.216" y1="12978.938" x2="-1104.811" y2="13032.896" gradientTransform="translate(-1066.426 13034.63) rotate(-180)" gradientUnits="userSpaceOnUse"><stop offset="0" stop-color="#79e6fd" stop-opacity=".79"/><stop offset=".314" stop-color="#a1eaf9" stop-opacity=".854"/><stop offset=".964" stop-color="#fdf5f0"/><stop offset="1" stop-color="#0063f1"/></linearGradient><clipPath id="h"><rect class="o" x="130.354" y=".784" width="84.856" height="29.97"/></clipPath></defs><g id="c"><polyline class="o" points="9.367 18 250.327 18 250.327 174 9.367 174 9.367 18"/><path class="x" d="m254.252,84.989c-.924-2.634-2.221-5.085-3.823-7.287-1.376-1.89-2.981-3.603-4.767-5.084-2.961-2.456-7.764-4.157-6.398-9.157,1.226-4.499,4.223-7.326,4.222-12.376,0-1.054-1.128-1.697-1.997-1.135-.941.608-1.865,1.199-2.69,1.481-.103.035-.206.069-.309.101-2.241.683-4.598.459-6.659-.507V0h-9.646v41.43l-3.555-3.973c-3.595-4.017-9.735-4.281-13.642-.585-3.909,3.697-4.165,10.009-.57,14.028l4.718,5.273c1.604,1.792,2.523,4.141,2.494,6.577-.041,3.475-1.673,6.725-4.402,8.784-6.75,5.089-11.133,13.327-11.054,22.56.151,17.678,16.288,28.654,32.222,28.654,15.178,0,27.48-12.624,27.48-28.195,0-3.358-.572-6.578-1.623-9.565Z"/><circle class="j" cx="180.764" cy="161.582" r="32.018"/><circle class="y" cx="114.118" cy="20.669" r="11.555" transform="translate(67.783 126.985) rotate(-76.717)"/><circle class="ac" cx="102.731" cy="170.518" r="12.712" transform="translate(-86.828 231.324) rotate(-76.717)"/><circle class="r" cx="86.843" cy="175.814" r="12.712" transform="translate(-100.612 233.373) rotate(-80.783)"/><path class="v" d="m57.895,75.698h-21.304l.456,45.685c.018,1.07-.386,2.079-1.136,2.842-.75.763-1.753,1.183-2.823,1.183-2.183,0-3.959-1.776-3.959-3.96v-49h4.212c.993,0,1.805-.813,1.805-1.806s-.812-1.805-1.805-1.805h-4.212v-4.333h4.935c.993,0,1.805-.813,1.805-1.805s-.812-1.806-1.805-1.806h-4.935v-6.198c0-8.595-6.993-15.588-15.588-15.588H4.815c-2.659,0-4.815,2.156-4.815,4.815s2.156,4.815,4.815,4.815h8.726c3.285,0,5.958,2.673,5.958,5.958v66.753c0,7.493,6.096,13.589,13.589,13.589,3.672,0,7.112-1.442,9.687-4.059,2.575-2.618,3.96-6.081,3.9-9.753l-.333-20.331c2.008-16.784,11.553-25.196,11.553-25.196Z"/><g class="i"><path class="w" d="m42.822.398c1.728,0,3.13,1.401,3.13,3.13v44.537c0,1.858,1.512,3.37,3.37,3.37s3.37-1.512,3.37-3.37v-29.611c0-1.728,1.401-3.13,3.13-3.13s3.13,1.401,3.13,3.13v29.611c0,5.31-4.32,9.63-9.63,9.63s-9.63-4.32-9.63-9.63V3.528c0-1.728,1.401-3.13,3.13-3.13Z"/></g><circle class="t" cx="216.413" cy="132.87" r="2.26"/><line class="q" x1="216.413" y1="127.093" x2="216.413" y2="162.84"/><path class="t" d="m225.44,138.314c1.248,0,2.26,1.012,2.26,2.26s-1.012,2.259-2.26,2.259-2.26-1.012-2.26-2.259,1.012-2.26,2.26-2.26Z"/><line class="q" x1="225.44" y1="127.093" x2="225.44" y2="162.84"/><circle class="t" cx="234.106" cy="148.13" r="2.26"/><line class="q" x1="234.106" y1="127.093" x2="234.106" y2="162.84"/><polygon class="s" points="79.462 127.026 74.262 130.028 69.062 133.031 69.062 127.026 69.062 121.022 74.262 124.024 79.462 127.026"/><circle class="s" cx="139.593" cy="66.386" r="5.056" transform="translate(-6.056 118.151) rotate(-45)"/><circle class="ab" cx="78.21" cy="53.361" r="11.555" transform="translate(-14.824 70.932) rotate(-45)"/><polygon class="s" points="8.085 147.517 4.259 149.726 .434 151.934 .434 147.517 .434 143.099 4.259 145.308 8.085 147.517"/><polygon class="s" points="18.005 147.765 14.179 149.974 10.354 152.182 10.354 147.765 10.354 143.347 14.179 145.556 18.005 147.765"/><polygon class="s" points="27.925 148.013 24.1 150.222 20.274 152.43 20.274 148.013 20.274 143.595 24.1 145.804 27.925 148.013"/><polygon class="s" points="38.589 148.013 34.764 150.222 30.938 152.43 30.938 148.013 30.938 143.595 34.764 145.804 38.589 148.013"/><circle class="m" cx="60.035" cy="100.545" r="2.768"/><circle class="m" cx="60.035" cy="111.138" r="2.768"/><circle class="m" cx="60.035" cy="122.212" r="2.768"/><path class="t" d="m147.789,136.981c0,1.478-1.198,2.676-2.676,2.676s-2.676-1.198-2.676-2.676,1.198-2.676,2.676-2.676,2.676,1.198,2.676,2.676Z"/><path class="k" d="m160.345,136.981c0,1.478-1.198,2.676-2.676,2.676s-2.676-1.198-2.676-2.676,1.198-2.676,2.676-2.676,2.676,1.198,2.676,2.676Z"/><path class="k" d="m172.695,136.981c0,1.478-1.198,2.676-2.676,2.676s-2.676-1.198-2.676-2.676,1.198-2.676,2.676-2.676,2.676,1.198,2.676,2.676Z"/><path class="k" d="m183.193,136.775c0,1.478-1.198,2.676-2.676,2.676s-2.676-1.198-2.676-2.676,1.198-2.676,2.676-2.676,2.676,1.198,2.676,2.676Z"/><path class="t" d="m147.789,148.096c0,1.478-1.198,2.676-2.676,2.676s-2.676-1.198-2.676-2.676,1.198-2.676,2.676-2.676,2.676,1.198,2.676,2.676Z"/><path class="k" d="m160.345,148.096c0,1.478-1.198,2.676-2.676,2.676s-2.676-1.198-2.676-2.676,1.198-2.676,2.676-2.676,2.676,1.198,2.676,2.676Z"/><path class="k" d="m172.695,148.096c0,1.478-1.198,2.676-2.676,2.676s-2.676-1.198-2.676-2.676,1.198-2.676,2.676-2.676,2.676,1.198,2.676,2.676Z"/><path class="k" d="m183.193,147.89c0,1.478-1.198,2.676-2.676,2.676s-2.676-1.198-2.676-2.676,1.198-2.676,2.676-2.676,2.676,1.198,2.676,2.676Z"/><circle class="t" cx="206.309" cy="43.728" r="2.486" transform="translate(116.499 234.541) rotate(-76.762)"/><path class="t" d="m206.309,57.88c-1.373,0-2.486-1.113-2.486-2.486s1.113-2.486,2.486-2.486,2.486,1.113,2.486,2.486-1.113,2.486-2.486,2.486Z"/><path class="t" d="m206.309,69.354c-1.373,0-2.486-1.113-2.486-2.486s1.113-2.486,2.486-2.486,2.486,1.113,2.486,2.486-1.113,2.486-2.486,2.486Z"/><g class="aa"><rect class="z" x="134.751" y="7.014" width="17.333" height="3.714" transform="translate(152.289 -134.547) rotate(90)"/><rect class="z" x="186.374" y="7.014" width="17.333" height="3.714" transform="translate(203.912 -186.17) rotate(90)"/><rect class="z" x="169.041" y="7.014" width="17.333" height="3.714" transform="translate(186.578 -168.836) rotate(90)"/><rect class="z" x="149.231" y="7.014" width="17.333" height="3.714" transform="translate(166.769 -149.026) rotate(90)"/><rect class="z" x="206.338" y=".047" width=".619" height="27.238"/><rect class="z" x="195.196" y=".047" width=".619" height="27.238"/><rect class="z" x="186.839" y=".047" width=".619" height="27.238"/><rect class="z" x="177.554" y=".047" width=".619" height="27.238"/><rect class="z" x="168.733" y=".047" width=".619" height="27.238"/><rect class="z" x="158.055" y=".047" width=".619" height="27.238"/><rect class="z" x="143.198" y=".047" width=".619" height="27.238"/><rect class="z" x="131.128" y=".047" width=".617" height="27.097"/><rect class="z" x="197.825" y="7.014" width="17.333" height="3.714" transform="translate(215.363 -197.62) rotate(90)"/></g><circle class="l" cx="99.395" cy="56.249" r="19.259" transform="translate(21.814 140.062) rotate(-76.717)"/><circle class="l" cx="99.395" cy="56.249" r="12.849" transform="translate(21.814 140.062) rotate(-76.717)"/><circle class="t" cx="99.395" cy="56.249" r="6.009"/><circle class="u" cx="99.395" cy="56.249" r="1.801"/><circle class="t" cx="86.71" cy="142.299" r="3.358" transform="translate(-75.224 102.991) rotate(-45)"/><line class="q" x1="109.747" y1="142.299" x2="63.672" y2="142.299"/><path class="n" d="m175.839,36.805h12.011c2.408,0,4.36,1.952,4.36,4.36v7.178c0,5.594,4.535,10.129,10.129,10.129h15.058c5.235,0,9.479,4.244,9.479,9.479v10.232c0,5.866,4.755,10.622,10.622,10.622h18.748"/><path class="t" d="m183.061,36.678h0c0,2.142-1.736,3.879-3.879,3.879h-15.126v-7.757h15.126c2.142,0,3.879,1.736,3.879,3.879Z"/><path class="p" d="m168.336,36.678h0c0,.782-.64,1.422-1.422,1.422h-12.282c-.782,0-1.422-.64-1.422-1.422h0c0-.782.64-1.422,1.422-1.422h12.282c.782,0,1.422.64,1.422,1.422Z"/><line class="p" x1="156.098" y1="37.989" x2="156.098" y2="35.34"/><line class="p" x1="157.543" y1="37.989" x2="157.543" y2="35.34"/><path class="t" d="m77.247,35.065h0c-1.324,0-2.407-1.083-2.407-2.407h0c0-1.324,1.083-2.407,2.407-2.407h0c1.324,0,2.407,1.083,2.407,2.407h0c0,1.324-1.083,2.407-2.407,2.407Z"/></g></svg>