<?xml version="1.0" encoding="UTF-8"?><svg id="Layer_1" xmlns="http://www.w3.org/2000/svg" viewBox="0 0 72.72 39.6"><defs><style>.cls-1{fill:#fff;}</style></defs><path class="cls-1" d="m23.27,26.84c-.39.03-.71.06-1.04.08l-.24-.04c-.09-.02-.2-.15-.19-.24.02-.16.03-.33.08-.49.14-.39.21-.8.26-1.21.02-.14.03-.28.07-.41.17-.49.14-.98.07-1.47-.08-.49-.18-.98-.32-1.45-.09-.32-.14-.64-.13-.97.01-.3,0-.61-.01-.91-.01-.28-.16-.46-.43-.53l-.24-.04c-.16-.03-.32-.06-.48-.08-.14.06-.24.16-.25.31-.02.25-.04.5-.01.74.02.19.08.39.18.54.23.37.31.76.31,1.18,0,.17.02.33,0,.5-.01.36-.01.72.1,1.07.05.17.02.33-.07.48-.19.31-.34.62-.45.97-.06.21-.17.41-.35.55l-.16.02c.01-.19.02-.38.03-.57,0-.11,0-.22,0-.33-.03-.5-.25-.89-.61-1.22l-.21-.13c-.37-.16-.96-.04-1.23.25-.08.08-.15.16-.21.25-.14.2-.26.41-.51.52-.15.06-.24.22-.31.37-.17.36-.11.69.19.97.14.13.28.26.42.4l-.06.21-.22.1c-.18.07-.36.13-.54.22-.37.18-.66.51-1.07.61-.41.1-.76.31-1.12.51-.1.06-.21.05-.31-.01l-.09-.13.05-.24c.17-.42.25-.84.21-1.29-.03-.3.07-.53.31-.72.15-.12.29-.25.42-.4.09-.1.15-.23.21-.35.06-.12,0-.29-.13-.35-.1-.04-.21-.1-.31-.09-.24.03-.49.07-.73.15-.27.09-.53.12-.81.12-.11,0-.22,0-.33,0-.48.05-.89.23-1.24.58-.31.31-.39.66-.28,1.06.06.24.17.46.26.69l-.07.11-.07-.03c-.1-.23-.2-.45-.29-.68-.15-.36-.31-.7-.65-.93-.19-.13-.22-.35-.14-.52.36-.72.77-1.4,1.21-2.06l.11-.13c.13-.15.27-.26.47-.31.21-.06.42-.14.61-.24.3-.15.36-.6.15-.85-.22-.25-.48-.46-.78-.6-.21-.1-.45-.06-.59.13-.14.17-.28.34-.38.54-.41.82-.97,1.54-1.54,2.25-.17.21-.34.43-.52.64-.35.41-.41.89-.34,1.4.02.16.08.32.12.48.04.16.11.32.11.48,0,.34.13.65.29.94.08.15.16.29.25.43.32.51.46,1.06.4,1.66-.04.36-.02.71,0,1.07.02.3,0,.6,0,.91l-.11.11-.07-.03c-.08-.11-.16-.22-.22-.34-.37-.78-.59-1.6-.75-2.44-.13-.68-.22-1.36-.32-2.04-.02-.14-.02-.27-.03-.41-.01-.19,0-.39-.03-.58-.18-1.12-.13-2.25-.17-3.38-.03-.85-.07-1.71-.09-2.56-.01-.44-.01-.88,0-1.32.04-1.1.09-2.2.14-3.31.01-.3.04-.6.08-.9.07-.57.12-1.15.23-1.72.15-.82.35-1.62.68-2.38.14-.33.32-.64.5-.95.4-.65.96-1.13,1.64-1.48.77-.4,1.59-.6,2.45-.69.16-.02.33,0,.49-.04.52-.13,1.04-.11,1.56-.11.96,0,1.93.01,2.9,0,.5-.01.99.09,1.48.14.46.05.94-.02,1.39.14.64.05,1.25.22,1.86.38.72.2,1.4.49,2.04.89,1.12.7,1.88,1.68,2.2,2.98.03.11.05.21.07.32.11.85.13,1.71,0,2.56-.22,1.4-.95,2.46-2.27,3.04-.68.3-1.4.5-2.16.52-.41.01-.83.05-1.24.09-.16.02-.32.07-.47.14l-.13.19c-.04.11.02.22.1.29.15.12.33.21.53.22.28.01.55.02.83.02.81,0,1.59.14,2.36.36.77.23,1.47.61,2.04,1.2.51.53.84,1.16,1.05,1.85.12.39.2.8.22,1.22.04.86.05,1.71-.04,2.56-.13,1.24-.48,2.43-1.14,3.51-.38.61-.85,1.15-1.42,1.6h-.15s-.06-.12-.06-.12c.04-.38.05-.77.13-1.15.11-.51.15-1.04.37-1.52.06-.12.07-.27.08-.4.03-.74.05-1.49.07-2.23,0-.11,0-.22-.02-.33-.03-.22,0-.44.06-.65.1-.43.19-.86.28-1.29.02-.11.06-.22.04-.32-.13-.62.04-1.2.19-1.79.09-.39-.21-.77-.62-.78-.21,0-.45.17-.49.37-.05.22-.07.43-.02.66.03.13.06.27.07.41.02.22-.04.44-.14.64-.25.49-.48.99-.55,1.55l-.1.23c-.05.11-.16.17-.27.13-.18-.07-.35-.15-.54-.21-.43-.13-.83.02-1.08.39-.32.47-.47.98-.44,1.56.01.26.15.47.22.8Z"/><path class="cls-1" d="m15.92,33.37c-.27,0-.54,0-.82,0-.22,0-.38-.15-.38-.35,0-.35,0-.71.02-1.06,0-.14.19-.21.31-.14l.14.08c.5.48,1.09.81,1.64,1.21l.17.17-.03.07c-.35.02-.71.03-1.06.05v-.02Z"/><path class="cls-1" d="m29.83,12.79c.16,0,.36.01.61.02.25,0,.5.01.75.01.35,0,.68,0,1-.01.32,0,.55-.01.68-.01.78,0,1.37.15,1.76.46.39.31.59.7.59,1.18,0,.24-.05.48-.16.72-.11.23-.29.45-.54.64-.25.19-.58.35-1,.47v.02c.59.07,1.05.2,1.38.39.33.19.56.42.7.68s.2.53.2.82c0,.4-.11.75-.32,1.05s-.52.54-.92.72c-.4.17-.88.26-1.44.26-.16,0-.41,0-.74-.02-.33-.01-.72-.02-1.18-.02-.26,0-.52,0-.77,0-.25,0-.46.01-.61.03v-.21c.25-.01.44-.04.58-.08.13-.04.22-.13.26-.25.04-.13.07-.31.07-.57v-5.2c0-.26-.02-.45-.07-.57-.04-.12-.13-.21-.26-.25-.13-.05-.32-.07-.58-.08v-.21Zm2.77.21c-.34,0-.57.06-.67.18-.1.12-.16.36-.16.72v5.2c0,.24.02.43.07.56.04.13.13.21.25.25.12.04.29.06.52.06.73,0,1.26-.16,1.59-.48.33-.32.5-.77.5-1.36,0-.54-.15-.95-.46-1.25-.31-.29-.82-.44-1.52-.44h-1.15v-.18h.96c.44,0,.78-.08,1.02-.24.24-.16.4-.37.49-.63s.13-.54.13-.84c0-.52-.12-.91-.36-1.17-.24-.26-.64-.39-1.2-.39Z"/><path class="cls-1" d="m38.44,14.69v4.54c0,.29.07.49.2.6.13.1.35.16.65.16v.22c-.13,0-.32-.02-.58-.03-.26-.01-.52-.02-.78-.02s-.51,0-.77.02c-.26.01-.45.02-.58.03v-.22c.3,0,.52-.05.65-.16.13-.1.2-.3.2-.6v-3.28c0-.31-.06-.55-.18-.7-.12-.15-.34-.23-.67-.23v-.22c.24.02.47.03.69.03s.42-.01.62-.04c.2-.02.38-.06.54-.11Zm-.58-2.5c.19,0,.36.07.5.2.14.13.21.29.21.47s-.07.34-.21.47c-.14.13-.31.2-.5.2s-.36-.07-.5-.2c-.14-.13-.21-.29-.21-.47s.07-.34.21-.47c.14-.13.31-.2.5-.2Z"/><path class="cls-1" d="m41.91,22.18c-.39,0-.77-.04-1.12-.12-.35-.08-.63-.2-.84-.36-.21-.16-.32-.37-.32-.62s.1-.45.31-.63c.21-.17.49-.31.85-.4l.07.17c-.16.05-.29.15-.39.29s-.15.31-.15.49c0,.32.16.57.47.74.32.17.73.26,1.23.26.33,0,.66-.04.98-.12.32-.08.58-.21.79-.4.21-.19.31-.44.31-.74,0-.23-.09-.42-.26-.57-.17-.15-.52-.23-1.03-.23h-.83c-.24,0-.47-.02-.69-.05-.22-.04-.41-.11-.55-.22s-.21-.28-.21-.51.1-.47.31-.69c.21-.22.59-.44,1.15-.68l.13.09c-.25.13-.47.25-.66.38-.19.13-.28.28-.28.46,0,.22.18.34.54.34h1.4c.31,0,.6.04.87.13.26.08.48.22.64.4.16.18.25.42.25.71,0,.33-.11.64-.33.92-.22.29-.56.52-1,.7-.44.18-.99.27-1.65.27Zm.06-4.2c-.36,0-.7-.06-.99-.17-.3-.12-.53-.29-.7-.54s-.26-.56-.26-.94.09-.7.26-.94.41-.42.7-.54c.3-.12.63-.17.99-.17s.71.06,1,.17c.29.12.53.29.7.54s.26.56.26.94-.09.7-.26.94-.4.42-.7.54-.63.17-1,.17Zm0-.19c.28,0,.5-.1.66-.31s.24-.59.24-1.15-.08-.94-.24-1.15c-.16-.21-.38-.31-.66-.31s-.5.1-.66.31c-.16.21-.25.59-.25,1.15s.08.94.25,1.15c.16.21.38.31.66.31Zm1.61-2.25l-.2-.07c.1-.24.28-.45.54-.63.25-.18.52-.27.79-.27.19,0,.35.05.47.15.12.1.18.25.18.46,0,.22-.06.37-.18.46s-.25.13-.37.13c-.11,0-.22-.04-.31-.11-.1-.07-.15-.19-.17-.35-.01-.16.04-.37.16-.62l.14.03c-.31.11-.54.23-.67.35-.13.12-.26.28-.37.48Z"/><path class="cls-1" d="m51.47,12.79c-.03.27-.05.52-.06.77-.01.25-.02.44-.02.57,0,.17,0,.33.01.47,0,.15.01.28.02.39h-.26c-.05-.49-.12-.88-.21-1.16-.09-.28-.25-.49-.47-.61-.22-.13-.57-.19-1.04-.19h-.7c-.25,0-.45.02-.58.06-.13.04-.22.12-.26.24s-.07.31-.07.57v5.2c0,.25.03.44.08.57s.17.21.33.25c.16.04.4.07.71.08v.21c-.19-.01-.44-.02-.74-.03-.3,0-.6,0-.91,0s-.56,0-.81,0c-.25,0-.46.01-.61.03v-.21c.25-.01.44-.04.58-.08.13-.04.22-.13.26-.25.04-.13.07-.31.07-.57v-5.2c0-.26-.02-.45-.07-.57-.04-.12-.13-.21-.26-.25-.13-.05-.32-.07-.58-.08v-.21c.28,0,.57.01.87.02.3,0,.61,0,.9.01s.58,0,.83,0h.63c.34,0,.73,0,1.17,0,.44,0,.83-.01,1.17-.03Zm-1.73,3.69v.21h-2.23v-.21h2.23Zm.21-1.38c-.03.4-.04.7-.04.91,0,.21,0,.4,0,.58s0,.37.01.58c0,.21.03.51.06.91h-.26c-.03-.22-.07-.44-.11-.65s-.13-.39-.27-.52c-.14-.14-.37-.2-.7-.2v-.21c.25,0,.43-.05.56-.14.13-.09.22-.21.28-.36.06-.15.1-.3.12-.46s.04-.3.07-.42h.26Z"/><path class="cls-1" d="m53.54,20.28c-.3,0-.57-.05-.79-.16-.22-.11-.39-.26-.51-.46-.12-.2-.17-.42-.17-.68,0-.31.08-.56.23-.75.15-.2.35-.35.59-.47.24-.12.49-.22.75-.3.26-.08.52-.16.75-.23.24-.07.43-.16.59-.26.15-.1.23-.23.23-.39v-.65c0-.29-.05-.52-.14-.67-.09-.15-.22-.26-.37-.31-.16-.05-.33-.08-.52-.08s-.39.02-.6.07c-.21.05-.38.15-.51.3.14.03.26.1.37.21s.16.25.16.43-.06.31-.18.41c-.12.1-.27.15-.46.15-.22,0-.37-.06-.48-.19-.1-.13-.15-.27-.15-.44,0-.18.05-.33.15-.44.1-.11.22-.22.37-.31.17-.11.39-.21.66-.29.27-.08.58-.12.92-.12.3,0,.57.03.78.1.22.07.39.16.54.29.19.17.32.37.38.61.06.24.09.53.09.86v2.91c0,.17.03.3.08.38.06.08.14.12.26.12l.23-.05c.07-.04.16-.09.27-.17l.12.18c-.16.11-.31.2-.45.28-.14.07-.33.11-.57.11-.22,0-.4-.03-.54-.1-.14-.07-.25-.17-.32-.31-.07-.14-.11-.31-.11-.52-.2.31-.44.55-.72.7-.28.15-.59.23-.94.23Zm.4-.42c.25,0,.47-.07.69-.2.21-.13.4-.33.57-.6v-2.05c-.09.12-.22.22-.39.3-.17.08-.36.16-.56.24-.2.08-.39.17-.57.28-.18.11-.33.25-.45.42-.12.17-.18.4-.18.68s.08.5.24.67c.16.17.38.25.65.25Z"/><path class="cls-1" d="m61.26,14.66c.28,0,.52.04.71.1.19.07.35.17.47.29.14.14.24.31.3.52.06.21.09.49.09.85v2.8c0,.29.07.49.2.6.13.1.35.16.65.16v.22c-.13,0-.32-.02-.58-.03-.26-.01-.51-.02-.76-.02s-.49,0-.72.02c-.23.01-.41.02-.53.03v-.22c.27,0,.46-.05.57-.16.11-.1.17-.3.17-.6v-3.03c0-.22-.02-.42-.06-.6s-.12-.33-.25-.44c-.13-.11-.33-.17-.6-.17-.31,0-.59.08-.82.25-.23.17-.42.4-.55.69-.13.29-.2.61-.2.97v2.33c0,.29.06.49.17.6.11.1.3.16.57.16v.22c-.12,0-.3-.02-.53-.03-.23-.01-.47-.02-.72-.02s-.5,0-.76.02c-.26.01-.45.02-.58.03v-.22c.3,0,.52-.05.65-.16.13-.1.2-.3.2-.6v-3.28c0-.31-.06-.55-.18-.7-.12-.15-.34-.23-.67-.23v-.22c.24.02.47.03.69.03s.42-.01.62-.04c.2-.02.38-.06.54-.11v1.24c.19-.48.46-.81.81-.99.35-.19.71-.28,1.09-.28Z"/></svg>