<?xml version="1.0" encoding="UTF-8"?><svg id="a" xmlns="http://www.w3.org/2000/svg" viewBox="0 0 88.11 45.12"><defs><style>.b{fill:#fff;}</style></defs><path class="b" d="m26.57,33.22c-.51.04-.94.08-1.37.1-.1,0-.21-.03-.32-.05-.12-.02-.27-.2-.25-.32.03-.21.04-.44.11-.64.19-.52.27-1.05.35-1.59.02-.18.03-.37.09-.53.23-.64.19-1.29.09-1.93-.1-.64-.24-1.28-.42-1.91-.12-.42-.19-.84-.17-1.28.02-.4,0-.8-.01-1.19-.01-.37-.21-.6-.57-.69-.1-.03-.21-.04-.32-.05-.21-.04-.42-.07-.63-.11-.19.08-.31.21-.33.4-.03.32-.05.65-.02.97.03.24.11.51.24.71.31.48.41,1,.4,1.55,0,.22.02.43.01.65-.01.47-.02.94.12,1.4.07.22.02.43-.1.63-.25.4-.45.82-.59,1.28-.08.27-.23.54-.46.72l-.21.03c.01-.25.03-.5.04-.75,0-.14,0-.29,0-.43-.03-.65-.33-1.17-.8-1.61-.08-.07-.18-.13-.28-.17-.48-.2-1.26-.05-1.62.33-.1.1-.2.22-.28.33-.18.27-.34.54-.67.68-.19.08-.31.29-.41.49-.23.48-.15.9.25,1.27.18.17.37.34.55.52.07.07.02.23-.07.27-.1.05-.19.1-.29.14-.23.1-.47.18-.7.28-.49.23-.86.67-1.41.81-.53.14-1,.4-1.47.67-.13.08-.28.07-.41-.02l-.12-.17c0-.1.03-.21.07-.31.22-.55.33-1.11.28-1.7-.03-.39.09-.7.4-.95.2-.16.38-.33.55-.52.12-.13.2-.3.28-.46.08-.15,0-.38-.17-.46-.13-.06-.28-.13-.41-.11-.32.04-.65.09-.95.2-.35.12-.7.16-1.07.15-.14,0-.29,0-.43,0-.63.06-1.17.31-1.63.77-.41.41-.51.86-.37,1.39.08.31.23.61.34.91l-.09.15-.09-.04c-.13-.3-.26-.59-.38-.89-.19-.47-.41-.92-.85-1.23-.24-.17-.29-.45-.18-.68.47-.94,1.01-1.84,1.59-2.71l.14-.17c.17-.2.36-.34.62-.41.28-.07.55-.19.8-.31.39-.19.48-.79.19-1.12-.29-.33-.62-.6-1.02-.79-.27-.13-.58-.08-.78.17-.18.23-.37.45-.5.71-.53,1.08-1.27,2.02-2.02,2.95-.23.28-.45.57-.68.85-.46.54-.54,1.17-.45,1.84.03.21.11.42.16.63.05.21.15.42.15.63,0,.45.17.85.38,1.23.1.19.21.38.33.56.42.67.61,1.39.52,2.18-.05.47-.02.94.01,1.41.03.4,0,.79,0,1.19l-.14.14-.09-.03c-.1-.15-.21-.29-.29-.45-.49-1.02-.77-2.1-.99-3.21-.17-.89-.29-1.78-.42-2.68-.03-.18-.03-.36-.04-.54-.01-.25,0-.51-.04-.76-.23-1.47-.17-2.96-.23-4.44-.04-1.12-.09-2.24-.12-3.36-.02-.58-.02-1.16,0-1.74.05-1.45.11-2.89.18-4.34.02-.4.06-.79.11-1.19.1-.75.16-1.51.3-2.26.2-1.07.46-2.12.89-3.12.19-.43.42-.84.66-1.24.53-.85,1.26-1.48,2.15-1.94,1.01-.52,2.09-.79,3.21-.9.22-.02.44,0,.65-.06.68-.17,1.36-.15,2.05-.15,1.27,0,2.54.02,3.8,0,.66-.01,1.3.12,1.94.19.61.06,1.23-.02,1.83.19.83.06,1.64.29,2.44.5.95.26,1.84.65,2.68,1.17,1.48.92,2.47,2.21,2.89,3.91.03.14.07.28.09.42.14,1.12.17,2.25,0,3.36-.29,1.84-1.25,3.23-2.99,3.99-.9.39-1.84.65-2.83.68-.54.02-1.08.06-1.62.12-.21.02-.42.09-.62.18-.08.04-.14.16-.17.26-.05.15.02.29.14.38.2.16.43.27.69.28.36.02.72.03,1.09.02,1.06,0,2.09.18,3.1.48,1.02.3,1.93.8,2.68,1.58.67.7,1.1,1.53,1.38,2.43.16.52.26,1.05.29,1.6.05,1.12.07,2.25-.06,3.36-.18,1.63-.63,3.19-1.5,4.61-.5.81-1.11,1.52-1.87,2.1h-.2s-.08-.16-.08-.16c.05-.5.07-1.02.18-1.51.15-.67.19-1.36.49-2,.07-.16.09-.35.1-.53.04-.98.06-1.95.09-2.93,0-.14,0-.29-.02-.43-.04-.29,0-.57.08-.86.14-.56.25-1.13.37-1.69.03-.14.08-.29.05-.42-.17-.81.06-1.58.25-2.35.12-.51-.27-1.02-.82-1.03-.28,0-.59.22-.65.48-.06.28-.09.57-.02.86.04.18.08.35.09.53.03.3-.05.58-.18.84-.33.65-.62,1.31-.72,2.04-.01.1-.08.2-.13.3-.07.15-.21.22-.35.17-.24-.09-.46-.2-.71-.27-.56-.17-1.09.02-1.42.51-.42.62-.62,1.29-.58,2.05.02.34.19.62.29,1.05Z"/><path class="b" d="m35.18,14.75c.21,0,.47.02.81.03.33,0,.66.01.98.01.46,0,.9,0,1.32-.01.42,0,.72-.01.89-.01,1.03,0,1.8.2,2.32.61.52.4.78.92.78,1.56,0,.32-.07.64-.21.94-.14.31-.38.59-.7.84-.33.25-.77.46-1.31.61v.03c.77.09,1.38.26,1.81.52.43.25.74.55.92.89.18.34.26.7.26,1.07,0,.52-.14.98-.42,1.38-.28.4-.68.71-1.21.94-.53.23-1.16.34-1.89.34-.22,0-.54,0-.97-.02-.43-.01-.95-.02-1.55-.02-.34,0-.68,0-1.01,0-.33,0-.6.02-.81.03v-.28c.33-.02.58-.05.76-.11.17-.05.29-.17.34-.33.06-.17.09-.41.09-.74v-6.83c0-.34-.03-.59-.09-.75-.06-.16-.17-.27-.34-.33s-.42-.09-.76-.1v-.28Zm3.64.28c-.45,0-.74.08-.88.23-.14.16-.21.47-.21.95v6.83c0,.32.03.56.09.73.06.17.17.28.32.33.16.06.39.08.69.08.96,0,1.65-.21,2.09-.63.44-.42.65-1.01.65-1.78,0-.71-.2-1.25-.61-1.64-.41-.39-1.07-.58-2-.58h-1.51v-.23h1.26c.58,0,1.02-.1,1.33-.31.31-.21.53-.48.65-.83s.18-.71.18-1.11c0-.68-.16-1.19-.48-1.54-.32-.34-.84-.52-1.58-.52Z"/><path class="b" d="m46.49,17.26v5.96c0,.39.09.65.26.78.17.14.46.21.86.21v.29c-.17,0-.42-.02-.76-.03-.34-.01-.68-.02-1.02-.02s-.67,0-1.01.02c-.34.01-.6.02-.76.03v-.29c.4,0,.69-.07.86-.21.17-.14.26-.4.26-.78v-4.31c0-.41-.08-.72-.23-.92-.16-.2-.45-.3-.88-.3v-.29c.31.03.62.04.91.04s.56-.02.81-.05c.26-.03.5-.08.71-.14Zm-.76-3.29c.25,0,.47.09.66.26.19.17.28.38.28.62s-.09.44-.28.62c-.19.17-.41.26-.66.26s-.47-.09-.66-.26c-.19-.17-.28-.38-.28-.62s.09-.44.28-.62c.19-.17.41-.26.66-.26Z"/><path class="b" d="m51.05,27.09c-.52,0-1.01-.05-1.47-.15s-.83-.26-1.11-.48c-.28-.22-.42-.49-.42-.82s.14-.6.41-.83c.27-.23.65-.4,1.11-.52l.09.22c-.22.06-.39.19-.51.39-.13.19-.19.41-.19.65,0,.42.21.75.62.97.42.23.96.34,1.62.34.44,0,.87-.05,1.29-.16.42-.11.77-.28,1.04-.53.27-.25.41-.57.41-.98,0-.3-.12-.55-.35-.75-.23-.2-.68-.3-1.36-.3h-1.09c-.31,0-.62-.02-.91-.07-.29-.05-.53-.14-.72-.29-.19-.15-.28-.37-.28-.67s.14-.61.41-.9c.27-.29.78-.58,1.51-.89l.18.12c-.33.17-.62.33-.87.5-.24.17-.37.37-.37.6,0,.29.24.44.7.44h1.83c.41,0,.79.06,1.14.17.35.11.63.28.84.52.21.24.32.55.32.94,0,.43-.15.83-.44,1.21-.29.38-.73.68-1.31.92-.58.23-1.3.35-2.16.35Zm.07-5.52c-.48,0-.92-.08-1.31-.23-.39-.15-.7-.39-.92-.71-.23-.32-.34-.73-.34-1.24s.11-.92.34-1.24.53-.56.92-.71c.39-.15.83-.23,1.31-.23s.93.08,1.31.23c.39.15.69.39.92.71s.34.73.34,1.24-.11.92-.34,1.24c-.23.32-.53.56-.92.71-.39.15-.82.23-1.31.23Zm0-.25c.37,0,.66-.14.87-.41.21-.28.31-.78.31-1.51s-.1-1.24-.31-1.51c-.21-.28-.5-.41-.87-.41s-.65.14-.87.41c-.22.27-.32.78-.32,1.51s.11,1.24.32,1.51c.21.27.5.41.87.41Zm2.11-2.96l-.26-.1c.14-.31.37-.59.7-.83s.68-.36,1.04-.36c.25,0,.46.07.62.2.16.13.23.33.23.6,0,.28-.08.48-.24.6-.16.11-.33.17-.49.17-.15,0-.28-.05-.41-.14-.13-.1-.2-.25-.22-.46-.02-.21.05-.48.21-.81l.19.04c-.41.15-.7.3-.88.46-.18.16-.34.37-.48.63Z"/><path class="b" d="m63.6,14.75c-.04.35-.07.69-.08,1.01-.01.33-.02.58-.02.75,0,.22,0,.43.01.62,0,.19.02.36.03.51h-.34c-.07-.64-.16-1.15-.28-1.52-.12-.37-.32-.64-.62-.81-.29-.17-.75-.25-1.36-.25h-.92c-.33,0-.58.03-.76.08-.17.05-.29.16-.34.32-.06.16-.09.41-.09.75v6.83c0,.33.04.58.11.74.07.17.22.28.43.33.21.06.53.09.94.11v.28c-.25-.02-.58-.03-.97-.03-.39,0-.79,0-1.19,0s-.74,0-1.07,0c-.33,0-.6.02-.81.03v-.28c.33-.02.58-.05.76-.11.17-.05.29-.17.34-.33.06-.17.09-.41.09-.74v-6.83c0-.34-.03-.59-.09-.75-.06-.16-.17-.27-.34-.33-.17-.06-.42-.09-.76-.1v-.28c.36,0,.74.02,1.14.02.4,0,.8,0,1.19.01.39,0,.75,0,1.09,0h.83c.45,0,.96,0,1.53,0,.57,0,1.08-.02,1.53-.03Zm-2.27,4.85v.27h-2.93v-.27h2.93Zm.28-1.82c-.04.52-.06.92-.05,1.2,0,.28,0,.53,0,.76s0,.48.01.76c0,.28.03.67.07,1.2h-.34c-.04-.29-.09-.58-.14-.86s-.17-.51-.35-.69c-.18-.18-.49-.27-.92-.27v-.27c.32,0,.57-.06.74-.19.17-.12.3-.28.37-.47.08-.19.13-.39.16-.6.03-.21.06-.39.09-.56h.34Z"/><path class="b" d="m66.31,24.6c-.4,0-.75-.07-1.04-.21-.29-.14-.52-.34-.67-.6-.15-.26-.23-.56-.23-.89,0-.4.1-.73.3-.99.2-.26.46-.46.77-.62.31-.16.64-.29.99-.39.35-.11.68-.21.99-.3.31-.1.57-.21.77-.34.2-.13.3-.3.3-.51v-.85c0-.39-.06-.68-.18-.88-.12-.2-.29-.34-.49-.41-.21-.07-.44-.1-.69-.1s-.51.03-.78.1c-.28.06-.5.2-.67.4.19.04.35.13.48.27.14.15.21.33.21.56s-.08.41-.23.54c-.16.13-.36.2-.6.2-.28,0-.49-.08-.62-.25-.13-.17-.2-.36-.2-.57,0-.24.06-.43.19-.58.13-.15.29-.28.48-.41.23-.15.52-.27.87-.38.36-.11.76-.16,1.21-.16.4,0,.74.04,1.03.13.28.09.52.21.7.38.25.22.42.49.5.8.08.32.12.7.12,1.14v3.83c0,.23.04.39.11.5.07.1.19.15.35.15.11,0,.21-.02.31-.07.1-.05.21-.12.35-.22l.16.23c-.21.15-.4.27-.59.36s-.44.14-.75.14c-.28,0-.52-.05-.7-.14-.19-.09-.33-.23-.42-.41-.09-.18-.14-.41-.14-.68-.26.41-.58.72-.95.92-.37.2-.78.3-1.24.3Zm.53-.55c.32,0,.62-.09.9-.26.28-.17.53-.44.75-.78v-2.7c-.12.16-.29.29-.51.39-.22.1-.47.21-.73.32-.26.11-.52.23-.75.37-.24.14-.44.33-.59.56s-.23.53-.23.89.1.66.32.88c.21.22.5.33.86.33Z"/><path class="b" d="m76.46,17.22c.37,0,.68.05.93.14s.46.22.62.39c.19.18.32.41.4.69.08.28.12.65.12,1.12v3.67c0,.39.09.65.26.78.17.14.46.21.86.21v.29c-.17,0-.42-.02-.76-.03-.34-.01-.67-.02-1-.02s-.64,0-.95.02c-.31.01-.54.02-.7.03v-.29c.35,0,.6-.07.75-.21.15-.14.22-.4.22-.78v-3.98c0-.28-.02-.55-.07-.78-.05-.24-.16-.43-.33-.58-.17-.15-.43-.22-.78-.22-.41,0-.77.11-1.08.33-.31.22-.55.52-.72.9-.17.38-.26.81-.26,1.27v3.06c0,.39.07.65.22.78.15.14.4.21.75.21v.29c-.16,0-.39-.02-.7-.03-.31-.01-.62-.02-.95-.02s-.66,0-1,.02c-.34.01-.6.02-.76.03v-.29c.4,0,.69-.07.86-.21.17-.14.26-.4.26-.78v-4.31c0-.41-.08-.72-.23-.92-.16-.2-.45-.3-.88-.3v-.29c.31.03.62.04.91.04s.56-.02.81-.05.5-.08.71-.14v1.62c.25-.62.61-1.06,1.06-1.3.45-.24.93-.37,1.43-.37Z"/></svg>